<svg xmlns="http://www.w3.org/2000/svg" width="80" height="80" viewBox="0 0 80 80">
    <g fill="#61ba95" fill-rule="evenodd">
        <path d="M78.94 66.752c0 3.353-1.306 6.506-3.677 8.877a12.472 12.472 0 0 1-8.878 3.677H12.95a12.472 12.472 0 0 1-8.877-3.677 12.472 12.472 0 0 1-3.677-8.877V12.989c0-3.354 1.306-6.506 3.677-8.878A12.472 12.472 0 0 1 12.949.434h53.436c3.354 0 6.507 1.306 8.878 3.677a12.472 12.472 0 0 1 3.677 8.878v53.763zm-3.398-62.92A12.865 12.865 0 0 0 66.385.04H12.95C9.49.04 6.24 1.387 3.793 3.832A12.864 12.864 0 0 0 0 12.99v53.763c0 3.459 1.347 6.71 3.793 9.156a12.864 12.864 0 0 0 9.156 3.793h53.436c3.46 0 6.711-1.347 9.157-3.793a12.864 12.864 0 0 0 3.793-9.156V12.989c0-3.46-1.347-6.71-3.793-9.157z"/>
        <path d="M46.478 54.226c-1.285 1.074-3.213 1.611-5.783 1.611h-7.51V42.978h7.51c2.592 0 4.53.537 5.816 1.612 1.285 1.052 1.927 2.642 1.927 4.768 0 2.171-.653 3.793-1.96 4.868zM33.185 23.969h7.078c2.016 0 3.545.45 4.586 1.348 1.042.877 1.562 2.16 1.562 3.848 0 1.71-.52 3.004-1.562 3.88-1.04.878-2.57 1.316-4.586 1.316h-7.078V23.97zm19.407 14.207c2.149-.81 3.788-2.05 4.918-3.716 1.13-1.688 1.695-3.727 1.695-6.117 0-4.539-1.55-7.838-4.652-9.9-3.08-2.06-8.064-3.09-14.954-3.09H20.39v49.101h21.235c6.602 0 11.52-1.162 14.755-3.486 3.234-2.324 4.851-5.854 4.851-10.59 0-3.092-.753-5.7-2.26-7.827-1.506-2.127-3.633-3.585-6.38-4.375z"/>
    </g>
</svg>
