<svg xmlns="http://www.w3.org/2000/svg" xmlns:xlink="http://www.w3.org/1999/xlink" width="80" height="80" viewBox="0 0 80 80">
    <defs>
        <path id="a" d="M79.852 79.852H0V0h79.852z"/>
    </defs>
    <g fill="none" fill-rule="evenodd">
        <path fill="#61ba95" d="M36.457 46.255a3.667 3.667 0 1 0 7.334 0 3.667 3.667 0 0 0-7.334 0z"/>
        <path fill="#C7C7C7" d="M46.777 33.409c-.001.054-.006.108-.008.162 0 .055.002.11 0 .164l.008-.326z"/>
        <g>
            <mask id="b" fill="#fff">
                <use xlink:href="#a"/>
            </mask>
            <path fill="#61ba95" d="M58.386 33.967h-.009c-.37 9.954-8.58 18.104-18.327 18.104-3.209 0-5.81-2.607-5.81-5.823s2.601-5.823 5.81-5.823c3.42 0 6.558-3.107 6.719-6.854-.014-3.69-2.932-6.62-6.635-6.62h-.168c-3.804 0-6.887 3.09-6.887 6.902v24.872c0 3.216-2.601 5.823-5.81 5.823-1.403 0-2.69-.5-3.694-1.33a3.327 3.327 0 0 0-2.115-6.256V33.853c0-10.243 8.286-18.548 18.506-18.548h.168c10.156 0 18.275 8.198 18.25 18.335h.008l-.006.327zM39.926 0C17.876 0 0 17.876 0 39.926s17.876 39.927 39.926 39.927 39.926-17.876 39.926-39.927C79.852 17.876 61.977 0 39.926 0z" mask="url(#b)"/>
        </g>
    </g>
</svg>
