<svg xmlns="http://www.w3.org/2000/svg" xmlns:xlink="http://www.w3.org/1999/xlink" width="83" height="80" viewBox="0 0 83 81">
    <defs>
        <path id="a" d="M0 80.05h82.102V0H0z"/>
    </defs>
    <g fill="none" fill-rule="evenodd" transform="translate(.06)">
        <path fill="#61ba95" d="M46.183 55.009c-.24-.103-.274-.274-.274-.548v-5.029c0-.342.171-.445.41-.273 2.156 1.403 4.619 2.018 6.877 2.018 2.702 0 3.83-1.129 3.83-2.668 0-1.232-.786-2.327-4.24-4.106-4.86-2.326-6.877-4.686-6.877-8.62 0-4.413 3.455-8.074 9.442-8.074 2.942 0 4.994.445 6.123.958.274.171.342.445.342.684v4.687c0 .274-.171.445-.513.342-1.505-.957-3.729-1.54-5.952-1.54-2.703 0-3.626 1.37-3.626 2.498 0 1.232.615 2.087 4.241 3.968 5.371 2.6 7.048 5.097 7.048 8.758 0 5.474-4.174 8.416-9.818 8.416-2.976 0-5.543-.617-7.013-1.471zM25.93 23.707a60.602 60.602 0 0 1 3.285-.103c4.55 0 7.252 2.19 7.252 6.535 0 5.439-3.763 6.841-7.765 6.841-1.369 0-1.984 0-2.771-.068V23.707zm-5.678 32.191h5.234c.308 0 .41-.137.41-.41V42.35c.924 0 1.369.068 2.669.068 7.73 0 14.026-3.728 14.026-12.417 0-6.637-3.695-11.837-13.17-11.837-3.388 0-6.638.069-8.827.17-.273 0-.752.172-.752.412v36.74c0 .308.136.411.41.411z"/>
        <mask id="b" fill="#fff">
            <use xlink:href="#a"/>
        </mask>
        <path fill="#61ba95" d="M3.42 76.629h75.261V3.42H3.421v73.208zM0 80.049h82.102V0H0v80.05z" mask="url(#b)"/>
    </g>
</svg>
