<svg xmlns="http://www.w3.org/2000/svg" xmlns:xlink="http://www.w3.org/1999/xlink" preserveAspectRatio="xMidYMid" width="80" height="80" viewBox="0 0 80 80">
  <defs>
    <style>
      .cls-1 {
        fill: #61ba95;
        fill-rule: evenodd;
      }
    </style>
  </defs>
  <path d="M-0.000,80.000 L-0.000,-0.000 L80.000,-0.000 L80.000,80.000 L-0.000,80.000 ZM77.002,2.935 L2.935,2.935 L2.935,77.002 L77.002,77.002 L77.002,2.935 Z" class="cls-1"/>
  <path d="M30.488,32.924 L36.990,19.058 L42.927,18.986 L34.022,36.732 L43.633,55.771 L36.849,55.986 L30.064,41.474 L23.421,55.914 L16.990,55.843 L26.390,37.307 L17.414,19.058 L23.845,18.986 L30.488,32.924 Z" class="cls-1"/>
  <path d="M46.930,52.670 C42.302,46.849 45.263,39.291 45.538,38.952 C45.944,38.452 47.905,32.263 56.726,32.946 L56.784,25.292 L61.769,25.351 C61.769,25.351 61.553,53.891 62.001,54.142 C62.395,54.363 51.576,58.514 46.930,52.670 ZM56.726,37.303 C56.726,37.303 49.904,35.106 49.364,43.662 C48.788,52.796 56.136,51.871 56.726,51.198 L56.726,37.303 Z" class="cls-1"/>
</svg>
