<svg xmlns="http://www.w3.org/2000/svg" width="101" height="80" viewBox="0 0 101 18">
    <path fill="#61ba95" fill-rule="evenodd" d="M75.086 17.32h4.828V.077h-4.828v17.241zm-74.483.006v-3.503s7.907-9.39 8.103-9.607c0 .01-8.103 0-8.103 0V.078H14.74V3.86s-7.393 9.093-7.586 9.31l7.586.028v4.127H.603zm96.214-.007l-6.91-9.655v9.655h-4.483V.078h4.207l6.49 9.31V.078h4.482v17.241H96.81h.007zm-38.973 0V.078h4.828V13.18h7.586v4.138H57.844zM43.706 3.871h2.518c.848 0 1.448.186 1.793.552.345.372.517.862.517 1.482 0 .697-.183 1.225-.545 1.576-.362.352-.98.528-1.851.528h-2.432V3.87zm.007 7.941l2.359-.082c1.02 0 1.955-.104 2.803-.31a5.913 5.913 0 0 0 2.19-1.021 4.633 4.633 0 0 0 1.431-1.835c.345-.759.517-1.683.517-2.783 0-1.034-.162-1.917-.475-2.648-.318-.735-.766-1.324-1.345-1.776-.586-.448-1.286-.78-2.104-.986-.817-.207-1.724-.31-2.707-.31H38.88v17.241h4.834v-5.49zm-23.448 5.493V.078h13.097v4.138h-8.287v2.069h5.173v4.138h-5.162v2.758h8.276V17.3H20.268l-.003.006z"/>
</svg>