<svg xmlns="http://www.w3.org/2000/svg" xmlns:xlink="http://www.w3.org/1999/xlink" width="83" height="80" viewBox="0 0 83 81">
    <defs>
        <path id="a" d="M0 80.182h82.238V0H0z"/>
    </defs>
    <g fill="none" fill-rule="evenodd">
        <path fill="#61ba95" d="M59.657 28.166c.274 0 .41.103.41.412v27.036c0 .273-.068.41-.41.41h-5.311c-.343 0-.446-.17-.446-.445V28.578h-.034c0-.275.102-.412.41-.412h5.38zM56.916 24.294c2.09 0 3.563-1.233 3.563-3.495 0-2.09-1.405-3.495-3.495-3.495-1.953 0-3.495 1.302-3.495 3.495 0 2.262 1.439 3.495 3.427 3.495M33.923 23.746h.069c.857 4.01 3.118 12.301 4.077 16.105h-8.12c1.439-5.311 3.254-12.096 3.974-16.105M20.286 56.025h5.037c.342 0 .445-.07.513-.343l2.707-10.28h10.965l2.81 10.314c.069.24.24.309.514.309h5.688c.274 0 .343-.172.274-.446L37.898 18.606c-.069-.274-.171-.342-.411-.342H30.29c-.171 0-.274.102-.274.342-.069 1.68-.171 2.227-.343 2.844l-9.731 34.06c-.069.412 0 .515.343.515"/>
        <mask id="b" fill="#fff">
            <use xlink:href="#a"/>
        </mask>
        <path fill="#61ba95" d="M3.427 76.755H78.81V3.427H3.427v73.328zM0 80.182h82.238V0H0v80.182z" mask="url(#b)"/>
    </g>
</svg>
