<svg xmlns="http://www.w3.org/2000/svg" width="57" height="80" viewBox="0 0 57 80">
    <g fill="#61ba95" fill-rule="evenodd">
        <path d="M42.767 0v10.773h8.666v-3.56h-5.064V0zM37.219 0L34.91 3.785 32.601 0h-3.754v10.773h3.523v-5.34l2.48 3.831h.061l2.478-3.83v5.34h3.586V0zM17.327 0v3.573h3.17v7.2h3.601v-7.2h3.171V0zM12.16 0v3.558H8.868V0h-3.6v10.773h3.6V7.166h3.294v3.607h3.6V0zM0 15.7l5.15 57.773 23.115 6.417 23.178-6.426L56.599 15.7H0zm10.702 13.71l-.17-1.9H46.025l-.17 1.9-.323 3.593-.142 1.592H18.275l.648 7.256h25.823l-.174 1.903-1.665 18.654-.106 1.197-14.502 4.02-.032.01-14.515-4.03-.992-11.125h7.113l.504 5.65 7.891 2.132.007-.002 7.903-2.134.822-9.19H12.443l-1.741-19.525z"/>
    </g>
</svg>
