<svg xmlns="http://www.w3.org/2000/svg" xmlns:xlink="http://www.w3.org/1999/xlink" width="80" height="80" viewBox="0 0 80 80">
    <defs>
        <path id="a" d="M0 0h79.62v79.62H0V0z"/>
    </defs>
    <g fill="none" fill-rule="evenodd">
        <mask id="b" fill="#fff">
            <use xlink:href="#a"/>
        </mask>
        <path fill="#61ba95" d="M59.149 61.312c-4.936 0-7.296-2.93-7.296-6.937 0-1.144.143-2.36.5-3.577l2.361-8.44c.286-.93.358-1.787.358-2.574 0-2.718-1.645-4.363-4.292-4.363-3.361 0-5.579 2.413-6.723 7.062l-4.579 18.362h-8.01l1.438-5.77c-2.355 3.868-5.625 6.263-9.659 6.263-4.864 0-7.152-2.802-7.152-7.023 0-1.07.143-2.384.429-3.6l3.647-14.901h-5.65l1.717-6.334h13.59l-5.365 21.28c-.358 1.361-.5 2.489-.5 3.274 0 1.361.67 1.76 1.717 1.995.638.143 5.72.043 8.488-6.108l3.523-14.107H31.97l1.717-6.334h12.23l-1.573 7.19c2.146-4.006 6.437-7.812 10.657-7.812 4.506 0 8.226 3.21 8.226 9.361 0 1.574-.215 3.286-.787 5.216l-2.29 8.223c-.213.86-.357 1.575-.357 2.218 0 1.43.572 2.145 1.645 2.145s2.433-.788 4.006-5.15l3.147 1.215c-1.86 6.51-5.22 9.226-9.441 9.226m-32.54-45.846c2.647 0 4.864 2.074 4.864 4.791 0 2.719-2.217 4.793-4.864 4.793s-4.864-2.074-4.864-4.793c0-2.717 2.217-4.79 4.864-4.79M72.402 0H7.217A7.218 7.218 0 0 0 0 7.217v65.185a7.217 7.217 0 0 0 7.217 7.217h65.185a7.217 7.217 0 0 0 7.218-7.217V7.217A7.218 7.218 0 0 0 72.402 0" mask="url(#b)"/>
    </g>
</svg>
