<?xml version="1.0" encoding="UTF-8"?>
<svg width="177px" height="56px" viewBox="0 0 177 56" version="1.1" xmlns="http://www.w3.org/2000/svg" xmlns:xlink="http://www.w3.org/1999/xlink">
    <!-- Generator: sketchtool 46 (44423) - http://www.bohemiancoding.com/sketch -->
    <title>ADC319ED-566E-438C-BE2D-A80FE6BF5959</title>
    <desc>Created with sketchtool.</desc>
    <defs>
        <polygon id="path-1" points="13.125 23.8949 13.125 0.3309 0.4438 0.3309 0.4438 23.8949 13.125 23.8949"></polygon>
        <polygon id="path-3" points="0 0.6674 0 56 49.6135 56 49.6135 0.6674 2.71050543e-20 0.6674"></polygon>
    </defs>
    <g id="Page-1" stroke="none" stroke-width="1" fill="none" fill-rule="evenodd">
        <g id="project" transform="translate(-631.000000, -205.000000)">
            <g id="banner" transform="translate(0.000000, -2.000000)">
                <g id="Group" transform="translate(329.000000, 206.000000)">
                    <g id="trackr-logo" transform="translate(302.000000, 0.000000)">
                        <path d="M63.6597,25.4018 L60.2527,25.4018 L60.2527,22.4678 L63.8487,22.2318 L64.3227,15.7968 L67.5867,15.7968 L67.5867,22.2318 L73.7857,22.2318 L73.7857,25.4018 L67.5867,25.4018 L67.5867,38.1768 C67.5867,41.0168 68.4857,42.6258 71.1357,42.6258 C71.9407,42.6258 72.9817,42.2948 73.7387,42.0098 L74.4957,44.9438 C73.2177,45.3698 71.6567,45.7958 70.2367,45.7958 C65.3157,45.7958 63.6597,42.6728 63.6597,38.1308 L63.6597,25.4018 Z" id="Fill-1" fill="#FFFFFF"></path>
                        <path d="M78.9893,22.2319 L82.2073,22.2319 L82.5383,26.3959 L82.6803,26.3959 C84.2413,23.5089 86.6073,21.6639 89.2103,21.6639 C90.2033,21.6639 90.9133,21.8059 91.6703,22.1369 L90.9133,25.5449 C90.1563,25.3069 89.6353,25.1659 88.6893,25.1659 C86.7493,25.1659 84.4313,26.5849 82.8693,30.4649 L82.8693,45.2279 L78.9893,45.2279 L78.9893,22.2319 Z" id="Fill-3" fill="#FFFFFF"></path>
                        <path d="M100.9434,42.6733 C103.1674,42.6733 105.0124,41.5843 107.2364,39.5973 L107.2364,33.2093 C99.5244,34.1553 96.9214,36.0483 96.9214,38.9823 C96.9214,41.5843 98.6724,42.6733 100.9434,42.6733 M107.2364,30.6533 C107.2364,27.7203 106.2434,24.8813 102.5054,24.8813 C99.8074,24.8813 97.4424,26.1113 95.6434,27.3423 L94.0824,24.6453 C96.2114,23.2733 99.4294,21.6633 103.1204,21.6633 C108.7514,21.6633 111.1164,25.4023 111.1164,31.1273 L111.1164,45.2283 L107.8994,45.2283 L107.5684,42.4843 L107.4734,42.4843 C105.2494,44.2813 102.6944,45.7953 99.8554,45.7953 C95.9754,45.7953 93.0894,43.3823 93.0894,39.2663 C93.0894,34.2503 97.4424,31.7423 107.2364,30.6533" id="Fill-5" fill="#FFFFFF"></path>
                        <path d="M127.8179,21.6636 C130.8459,21.6636 132.9759,22.9416 134.5369,24.4086 L132.5969,26.9166 C131.2249,25.7326 129.8049,24.8816 127.9599,24.8816 C123.7959,24.8816 120.7679,28.4776 120.7679,33.7766 C120.7679,39.0296 123.6539,42.5786 127.8649,42.5786 C130.0419,42.5786 131.8869,41.4896 133.2589,40.2596 L135.0099,42.8146 C132.9279,44.6606 130.2779,45.7956 127.5339,45.7956 C121.4299,45.7956 116.7459,41.3946 116.7459,33.7766 C116.7459,26.0636 121.9029,21.6636 127.8179,21.6636" id="Fill-7" fill="#FFFFFF"></path>
                        <polygon id="Fill-9" fill="#FFFFFF" points="140.0239 11.5376 143.8569 11.5376 143.8569 34.3456 143.9989 34.3456 153.7939 22.2316 158.0989 22.2316 150.3859 31.4586 159.1399 45.2276 154.8809 45.2276 148.1629 34.1556 143.8569 39.1716 143.8569 45.2276 140.0239 45.2276"></polygon>
                        <g id="Group-13" transform="translate(163.000000, 21.333000)">
                            <mask id="mask-2" fill="white">
                                <use xlink:href="#path-1"></use>
                            </mask>
                            <g id="Clip-12"></g>
                            <path d="M0.4438,0.8989 L3.6618,0.8989 L3.9928,5.0629 L4.1338,5.0629 C5.6958,2.1759 8.0618,0.3309 10.6648,0.3309 C11.6588,0.3309 12.3678,0.4729 13.1258,0.8039 L12.3678,4.2119 C11.6108,3.9739 11.0898,3.8329 10.1438,3.8329 C8.2038,3.8329 5.8848,5.2519 4.3238,9.1319 L4.3238,23.8949 L0.4438,23.8949 L0.4438,0.8989 Z" id="Fill-11" fill="#FFFFFF" mask="url(#mask-2)"></path>
                        </g>
                        <g id="Group-16" transform="translate(0.000000, 0.333000)">
                            <mask id="mask-4" fill="white">
                                <use xlink:href="#path-3"></use>
                            </mask>
                            <g id="Clip-15"></g>
                            <path d="M42.8945,31.1934 C42.8945,32.2574 43.7605,33.1234 44.8245,33.1234 L45.6645,33.1234 C44.7475,43.1274 36.7405,51.1324 26.7365,52.0504 L26.7365,51.2114 C26.7365,50.1464 25.8715,49.2814 24.8075,49.2814 C23.7425,49.2814 22.8765,50.1464 22.8765,51.2114 L22.8765,52.0504 C12.8735,51.1324 4.8665,43.1274 3.9495,33.1234 L4.7895,33.1234 C5.8535,33.1234 6.7195,32.2574 6.7195,31.1934 C6.7195,30.1294 5.8535,29.2634 4.7895,29.2634 L3.9495,29.2634 C4.8665,19.2594 12.8735,11.2544 22.8765,10.3354 L22.8765,11.1754 C22.8765,12.2404 23.7425,13.1054 24.8075,13.1054 C25.8715,13.1054 26.7365,12.2404 26.7365,11.1754 L26.7365,10.3354 C36.7405,11.2544 44.7475,19.2594 45.6645,29.2634 L44.8245,29.2634 C43.7605,29.2634 42.8945,30.1294 42.8945,31.1934 M42.3465,13.6534 C38.1515,9.4574 32.6235,6.9144 26.7365,6.4614 L26.7365,4.5264 L27.6665,4.5264 C28.7305,4.5264 29.5965,3.6614 29.5965,2.5964 C29.5965,1.5324 28.7305,0.6674 27.6665,0.6674 L21.9475,0.6674 C20.8835,0.6674 20.0175,1.5324 20.0175,2.5964 C20.0175,3.6614 20.8835,4.5264 21.9475,4.5264 L22.8765,4.5264 L22.8765,6.4614 C16.9895,6.9144 11.4625,9.4574 7.2675,13.6534 C2.5815,18.3394 -0.0005,24.5684 -0.0005,31.1934 C-0.0005,37.8214 2.5815,44.0494 7.2675,48.7334 C11.9525,53.4194 18.1815,56.0004 24.8075,56.0004 C31.4355,56.0004 37.6645,53.4194 42.3465,48.7334 C47.0325,44.0474 49.6135,37.8184 49.6135,31.1934 C49.6135,24.5654 47.0325,18.3374 42.3465,13.6534" id="Fill-14" fill="#FFFFFF" mask="url(#mask-4)"></path>
                        </g>
                        <path d="M24.8071,16.2988 C23.7431,16.2988 22.8771,17.1638 22.8771,18.2288 L22.8771,32.5278 C22.8771,33.5918 23.7431,34.4568 24.8071,34.4568 C25.8711,34.4568 26.7371,33.5918 26.7371,32.5278 L26.7371,18.2288 C26.7371,17.1638 25.8711,16.2988 24.8071,16.2988" id="Fill-17" fill="#FFFFFF"></path>
                    </g>
                </g>
            </g>
        </g>
    </g>
</svg>