<?xml version="1.0" standalone="no"?>
<!DOCTYPE svg PUBLIC "-//W3C//DTD SVG 20010904//EN"
 "http://www.w3.org/TR/2001/REC-SVG-20010904/DTD/svg10.dtd">
<svg version="1.0" xmlns="http://www.w3.org/2000/svg"
 width="297.000000pt" height="297.000000pt" viewBox="0 0 297.000000 297.000000"
 preserveAspectRatio="xMidYMid meet">
<metadata>
Created by potrace 1.11, written by Peter Selinger 2001-2013
</metadata>
<g transform="translate(0.000000,297.000000) scale(0.100000,-0.100000)"
fill="#000000" stroke="none">
<path d="M2 1489 l3 -1482 1468 0 c807 0 1469 2 1471 4 8 7 8 90 7 1522 l-1
1437 -1475 0 -1475 0 2 -1481z m2738 1 l0 -1270 -1265 0 -1265 0 0 1270 0
1270 1265 0 1265 -1 0 -1269z"/>
<path d="M600 1495 l0 -865 880 0 880 0 0 865 0 865 -880 0 -880 0 0 -865z
m1570 0 l0 -675 -690 0 -690 0 0 675 0 675 690 0 690 0 0 -675z"/>
</g>
</svg>
