<svg xmlns="http://www.w3.org/2000/svg" xmlns:xlink="http://www.w3.org/1999/xlink" preserveAspectRatio="xMidYMid" width="90" height="90" viewBox="0 0 90 90">
  <defs>
    <style>
      .cls-1 {
        fill: #0edc87;
        fill-rule: evenodd;
      }
    </style>
  </defs>
  <path d="M9.000,82.000 L9.000,11.000 L80.000,11.000 L80.000,82.000 L9.000,82.000 ZM78.174,12.685 L10.685,12.685 L10.685,80.174 L78.174,80.174 L78.174,12.685 Z" class="cls-1"/>
  <path d="M70.058,21.476 L73.007,21.476 L73.007,73.181 L70.058,73.181 L70.058,21.476 Z" class="cls-1"/>
  <path d="M19.055,21.476 L70.788,21.476 L70.788,24.425 L19.055,24.425 L19.055,21.476 Z" class="cls-1"/>
  <path d="M19.055,70.260 L70.788,70.260 L70.788,73.181 L19.055,73.181 L19.055,70.260 Z" class="cls-1"/>
  <path d="M16.695,21.476 L19.644,21.476 L19.644,73.181 L16.695,73.181 L16.695,21.476 Z" class="cls-1"/>
</svg>
