<svg xmlns="http://www.w3.org/2000/svg" xmlns:xlink="http://www.w3.org/1999/xlink" preserveAspectRatio="xMidYMid" width="734" height="734" viewBox="0 0 734 734">
  <defs>
    <style>
      .cls-1 {
        fill: #0edc87;
        fill-rule: evenodd;
      }
    </style>
  </defs>
  <g>
    <path d="M375.000,676.000 C203.239,676.000 64.000,536.761 64.000,365.000 C64.000,193.239 203.239,54.000 375.000,54.000 C546.761,54.000 686.000,193.239 686.000,365.000 C686.000,536.761 546.761,676.000 375.000,676.000 ZM374.500,66.000 C209.643,66.000 76.000,199.643 76.000,364.500 C76.000,529.357 209.643,663.000 374.500,663.000 C539.357,663.000 673.000,529.357 673.000,364.500 C673.000,199.643 539.357,66.000 374.500,66.000 Z" class="cls-1"/>
    <path d="M584.693,392.000 C579.181,493.145 498.145,574.181 397.000,579.693 L397.000,580.000 L386.000,580.000 L386.000,392.000 L386.000,381.000 L397.000,381.000 L585.000,381.000 L585.000,392.000 L584.693,392.000 ZM397.000,392.000 L397.000,567.700 C491.639,562.447 567.447,486.639 572.700,392.000 L397.000,392.000 Z" class="cls-1"/>
    <path d="M564.000,367.000 L553.994,367.000 L367.000,367.000 L367.000,553.994 L367.000,565.000 L367.000,566.000 C257.095,566.000 168.000,476.905 168.000,367.000 C168.000,257.095 257.095,168.000 367.000,168.000 C476.905,168.000 566.000,257.095 566.000,367.000 L564.000,367.000 ZM367.500,181.000 C264.499,181.000 181.000,264.499 181.000,367.500 C181.000,466.299 257.830,547.134 355.000,553.567 L355.000,367.000 L355.000,358.000 L355.000,355.000 L553.567,355.000 C547.134,257.830 466.299,181.000 367.500,181.000 Z" class="cls-1"/>
  </g>
</svg>
