<svg xmlns="http://www.w3.org/2000/svg" xmlns:xlink="http://www.w3.org/1999/xlink" preserveAspectRatio="xMidYMid" width="734" height="734" viewBox="0 0 734 734">
  <defs>
    <style>
      .cls-1, .cls-2 {
        fill: #0edc87;
      }

      .cls-1 {
        fill-rule: evenodd;
      }
    </style>
  </defs>
  <g>
    <path d="M375.000,676.000 C203.239,676.000 64.000,536.761 64.000,365.000 C64.000,193.239 203.239,54.000 375.000,54.000 C546.761,54.000 686.000,193.239 686.000,365.000 C686.000,536.761 546.761,676.000 375.000,676.000 ZM374.500,66.000 C209.643,66.000 76.000,199.643 76.000,364.500 C76.000,529.357 209.643,663.000 374.500,663.000 C539.357,663.000 673.000,529.357 673.000,364.500 C673.000,199.643 539.357,66.000 374.500,66.000 Z" class="cls-1"/>
    <path d="M570.260,480.124 L376.270,589.012 L185.008,475.396 L187.737,252.892 L381.728,144.004 L572.989,257.620 L570.260,480.124 ZM381.545,159.004 L200.554,260.796 L198.008,468.799 L376.453,575.011 L557.444,473.219 L559.990,265.216 L381.545,159.004 Z" class="cls-1"/>
    <rect x="373" y="359" width="12" height="225" class="cls-2"/>
    <path d="M189.658,467.158 L563.363,252.437 L569.342,262.842 L195.637,477.563 L189.658,467.158 Z" class="cls-1"/>
    <path d="M568.998,466.602 L194.985,251.999 L189.002,262.398 L563.015,477.001 L568.998,466.602 Z" class="cls-1"/>
  </g>
</svg>
