<svg xmlns="http://www.w3.org/2000/svg" xmlns:xlink="http://www.w3.org/1999/xlink" preserveAspectRatio="xMidYMid" width="110" height="110" viewBox="0 0 110 110">
  <defs>
    <style>
      .cls-1 {
        fill: #000;
        fill-rule: evenodd;
      }
    </style>
  </defs>
  <path d="M2.000,2.000 L107.879,2.000 L107.879,9.554 L2.000,9.554 L2.000,2.000 Z" class="cls-1"/>
  <path d="M2.000,100.446 L107.879,100.446 L107.879,108.000 L2.000,108.000 L2.000,100.446 Z" class="cls-1"/>
  <path d="M2.000,2.404 L9.554,2.404 L9.554,107.879 L2.000,107.879 L2.000,2.404 Z" class="cls-1"/>
  <path d="M100.446,2.404 L108.000,2.404 L108.000,107.879 L100.446,107.879 L100.446,2.404 Z" class="cls-1"/>
  <path d="M23.612,23.854 L85.620,23.854 L85.620,30.601 L23.612,30.601 L23.612,23.854 Z" class="cls-1"/>
  <path d="M23.612,78.995 L85.620,78.995 L85.620,85.742 L23.612,85.742 L23.612,78.995 Z" class="cls-1"/>
  <path d="M79.925,23.854 L86.792,23.854 L86.792,85.742 L79.925,85.742 L79.925,23.854 Z" class="cls-1"/>
  <path d="M23.612,23.854 L30.358,23.854 L30.358,85.742 L23.612,85.742 L23.612,23.854 Z" class="cls-1"/>
</svg>
