<svg xmlns="http://www.w3.org/2000/svg" width="80" height="80" viewBox="0 0 77 80">
    <g fill="#61ba95" fill-rule="evenodd">
        <path d="M58.467 23.161c.99-.137 2.031.03 2.113.615.037.264-.163.668-.509 1.032-.227.238-.705.652-1.356.742a1.783 1.783 0 0 1-.25.017c-.975 0-1.8-.779-1.863-1.235-.08-.587.878-1.033 1.865-1.17zm-24.251 1.983c-.083.597-1.027 1.405-2.065 1.405-.09 0-.18-.006-.27-.019-.622-.086-1.25-.478-1.681-1.049-.152-.201-.4-.592-.35-.945a.744.744 0 0 1 .307-.495c.393-.297 1.17-.408 2.026-.288 1.052.146 2.137.644 2.033 1.391z"/>
        <path d="M70.579 52.275c-1.363.632-3.643 1.106-5.809 1.208-2.392.112-3.61-.268-3.897-.501-.134-2.765.895-3.054 1.984-3.36.17-.048.338-.095.499-.15.1.08.21.162.33.24 1.923 1.27 5.353 1.407 10.195.407l.053-.01c-.653.61-1.77 1.43-3.355 2.166m-12.058.84c-.176 2.226-1.427 12.649-2.062 16.331-.84 4.865-2.63 6.677-7.663 7.756-5.218 1.118-7.066-1.545-8.284-4.589-.786-1.965-1.172-10.826-.898-20.612a1.178 1.178 0 0 0-.05-.375 4.942 4.942 0 0 0-.147-.691c-.407-1.424-1.4-2.615-2.592-3.109-.473-.196-1.342-.556-2.386-.289.223-.917.61-1.953 1.028-3.075l.175-.471c.198-.532.446-1.083.709-1.667 1.417-3.15 3.36-7.464 1.252-17.21-.79-3.651-3.426-5.434-7.422-5.02-2.395.248-4.587 1.215-5.68 1.769-.236.119-.45.234-.651.346.305-3.678 1.457-10.552 5.77-14.901 2.715-2.738 6.33-4.09 10.736-4.018 8.68.142 14.247 4.597 17.388 8.31 2.707 3.198 4.173 6.42 4.758 8.159-4.4-.448-7.391.42-8.908 2.59-3.3 4.716 1.805 13.871 4.259 18.271.45.807.838 1.504.96 1.8.8 1.936 1.834 3.229 2.589 4.172.231.29.456.57.627.815-1.333.384-3.726 1.272-3.508 5.708M37 53.061c-3.005 4.208-7.384 4.154-10.53 3.367-.647-.162-1.23-.443-1.572-.677.286-.134.794-.317 1.675-.499 4.266-.877 4.925-1.497 6.363-3.324.33-.419.704-.894 1.222-1.472.772-.864 1.125-.718 1.764-.452.519.214 1.024.864 1.228 1.58.097.337.206.978-.15 1.477m-10.87-8.756c-2.087-2.177-3.035-5.207-2.601-8.312.607-4.347.383-8.134.263-10.168-.017-.284-.032-.534-.041-.73.983-.872 5.538-3.313 8.786-2.568 1.482.34 2.385 1.348 2.76 3.085 1.944 8.988.258 12.734-1.097 15.745-.279.62-.543 1.206-.768 1.813l-.175.469c-.442 1.185-.853 2.287-1.108 3.334-2.219-.007-4.378-.955-6.019-2.668m-7.19 9.594c-1.887 2.269-3.19 1.834-3.618 1.69-2.793-.93-6.033-6.832-8.89-16.19-2.47-8.098-3.915-16.241-4.03-18.525-.36-7.221 1.39-12.254 5.203-14.958 6.207-4.401 16.41-1.767 20.51-.431-.059.058-.12.113-.178.172-6.728 6.794-6.569 18.403-6.552 19.113 0 .274.022.661.054 1.195.115 1.952.33 5.586-.245 9.702-.535 3.824.644 7.567 3.234 10.27.266.276.545.54.837.789a173.03 173.03 0 0 0-6.325 7.173m43.365-20.076c.354 2.948.718 5.984-.69 8.98a11.675 11.675 0 0 1-.624-1.282c-.175-.424-.555-1.106-1.08-2.049-2.047-3.67-6.84-12.265-4.387-15.773.731-1.044 2.586-2.117 7.242-1.54-.02 1.167-.18 2.226-.35 3.332-.184 1.188-.373 2.418-.421 3.91-.047 1.452.134 2.961.31 4.422M57.123 2.398c6.824.15 12.221 2.703 16.043 7.586 2.93 3.746-.297 20.79-9.64 35.493-.094-.12-.189-.239-.284-.357l-.118-.148c2.415-3.988 1.942-7.933 1.522-11.43-.172-1.436-.336-2.792-.294-4.065.043-1.35.221-2.508.394-3.627.212-1.38.428-2.807.368-4.49.045-.177.063-.385.04-.633-.152-1.613-1.995-6.443-5.75-10.814-2.054-2.39-5.049-5.066-9.139-6.87a30.815 30.815 0 0 1 6.858-.645m19.75 46.462c-.362-1.097-1.53-1.45-3.47-1.049-5.758 1.189-7.82.365-8.497-.133 4.476-6.82 8.158-15.062 10.145-22.753.94-3.643 1.46-7.026 1.503-9.784.047-3.026-.469-5.25-1.532-6.61C70.736 3.055 64.444.117 56.83.037c-5.236-.06-9.659 1.28-10.516 1.658a26.218 26.218 0 0 0-5.918-.76c-3.93-.064-7.328.877-10.14 2.795a45.266 45.266 0 0 0-8.241-2.16c-6.676-1.076-11.98-.261-15.766 2.42C1.73 7.19-.355 12.912.049 20.993c.136 2.72 1.685 11.084 4.13 19.094 3.219 10.544 6.717 16.512 10.398 17.74.43.144.927.244 1.475.244 1.343 0 2.989-.605 4.702-2.664 2.089-2.506 4.25-4.952 6.48-7.333a10.442 10.442 0 0 0 4.662 1.254l.012.127c-.28.334-.554.672-.822 1.016-1.127 1.43-1.361 1.727-4.987 2.474-1.032.213-3.771.777-3.812 2.698-.043 2.098 3.239 2.98 3.613 3.072a15.47 15.47 0 0 0 3.755.488c2.912 0 5.474-.957 7.522-2.809-.063 7.48.249 14.85 1.147 17.096.735 1.838 2.532 6.331 8.208 6.33.833 0 1.75-.096 2.758-.312 5.924-1.27 8.496-3.888 9.491-9.66.533-3.085 1.447-10.452 1.876-14.403.908.283 2.075.413 3.338.412 2.633 0 5.67-.559 7.576-1.443 2.14-.994 6.003-3.434 5.302-5.553"/>
    </g>
</svg>
