<svg xmlns="http://www.w3.org/2000/svg" width="59" height="80" viewBox="0 0 59 80">
    <path fill="#61ba95" fill-rule="evenodd" d="M47.846 36.03a3.778 3.778 0 1 1-7.556 0 3.778 3.778 0 0 1 7.556 0zm4.19 11.198a3.366 3.366 0 1 1 0-6.732 3.366 3.366 0 0 1 0 6.732zm3.367 3.332a3.126 3.126 0 1 1 0 6.252 3.126 3.126 0 0 1 0-6.252zm-1.409 10.544a2.679 2.679 0 1 1 0 5.358 2.679 2.679 0 0 1 0-5.358zm-5.186 9.309a2.37 2.37 0 1 1 0 4.74 2.37 2.37 0 0 1 0-4.74zm-8.003 5.152a2.198 2.198 0 1 1 0 4.397 2.198 2.198 0 0 1 0-4.397zm-7.316-46.747a4.19 4.19 0 1 1 0 8.38 4.19 4.19 0 0 1 0-8.38zm-11.266 1.717a4.465 4.465 0 1 1 0 8.93 4.465 4.465 0 0 1 0-8.93zm-8.724 6.8a4.808 4.808 0 1 1 0 9.618 4.808 4.808 0 0 1 0-9.617zM9.17 48.328a5.015 5.015 0 1 1 0 10.03 5.015 5.015 0 0 1 0-10.03zM7.316 8.09a2.37 2.37 0 1 1 0-4.74 2.37 2.37 0 0 1 0 4.74zM3.194 13.48a2.164 2.164 0 1 1 0-4.327 2.164 2.164 0 0 1 0 4.327zm.722 4.363a1.957 1.957 0 1 1-3.915 0 1.957 1.957 0 0 1 3.915 0zm1.545 6.25a1.683 1.683 0 1 1-3.366.001 1.683 1.683 0 0 1 3.366 0zm2.37 3.78a1.51 1.51 0 1 1 0 3.02 1.51 1.51 0 0 1 0-3.02zm4.38 3.846a1.288 1.288 0 1 1 2.575 0 1.288 1.288 0 0 1-2.575 0zm1.751-26.568a2.576 2.576 0 1 1 0-5.152 2.576 2.576 0 0 1 0 5.152zm7.265.515a2.834 2.834 0 1 1 0-5.668 2.834 2.834 0 0 1 0 5.668zm9.325.928a3.091 3.091 0 1 1-6.183 0 3.091 3.091 0 0 1 6.183 0zm3.942 6.8a3.246 3.246 0 1 1-6.493 0 3.246 3.246 0 0 1 6.493 0z"/>
</svg>
