<svg xmlns="http://www.w3.org/2000/svg" width="63" height="80" viewBox="0 0 63 80">
    <path fill="#61ba95" fill-rule="evenodd" d="M28.645 30.621c-1.532-.5-2.795-.667-4.411-.667-6.617 0-10.44 4.036-10.44 11.11 0 6.887 3.654 10.69 10.356 10.69 1.448 0 2.626-.082 4.495-.332v-20.8zM28.187.066H41.27v59.965c-6.701 1.268-11.635 1.766-16.973 1.766C8.318 61.781 0 54.642 0 40.931c0-13.21 8.823-21.783 22.496-21.783 2.121 0 3.738.167 5.69.667V.066zM49.725 13.36h13.083V.066H49.725V13.36zm12.94 7.398V50.78c0 10.34-.774 15.312-3.048 19.599-2.121 4.12-4.916 6.72-10.692 9.59l-12.14-5.72c5.775-2.685 8.57-5.056 10.355-8.676 1.87-3.701 2.459-7.988 2.459-19.263V20.758h13.066z"/>
</svg>
