<svg xmlns="http://www.w3.org/2000/svg" xmlns:xlink="http://www.w3.org/1999/xlink" width="101" height="80" viewBox="0 0 101 76">
    <defs>
        <path id="a" d="M0 74.823h99.82V0H0z"/>
    </defs>
    <g fill="none" fill-rule="evenodd" transform="translate(.319 .75)">
        <mask id="b" fill="#fff">
            <use xlink:href="#a"/>
        </mask>
        <path fill="#61ba95" d="M70.605 56.497c-.312-.234-.273-.956.78-3.218.409-.896 1.345-2.397 2.963-3.82.195.584.312 1.15.293 1.676-.02 3.51-2.515 4.816-4.036 5.362zm-13.337 3.041c-.429.215-.819.37-.994.254-.137-.078.175-.37.175-.37s2.164-2.32 3.022-3.393c.488-.624 1.072-1.345 1.696-2.164v.234c0 2.807-2.69 4.68-3.899 5.44zm-17.294-8.267c-.995 2.438-3.1 8.697-4.368 8.345-1.092-.292-1.755-5.03-.215-9.71.78-2.359 2.438-5.166 3.412-6.258 1.58-1.755 3.296-2.34 3.725-1.619.507.936-1.93 7.721-2.554 9.242zm-20.96 14.253c-2.867 3.14-6.903 4.329-8.619 3.315-1.852-1.073-1.13-5.694 2.399-9.028 2.145-2.027 4.933-3.9 6.765-5.05.41-.253 1.034-.623 1.775-1.072.117-.078.195-.117.195-.117.136-.078.292-.176.448-.273 1.307 4.758.059 8.93-2.963 12.225zM85.93 42.965c-3.49.02-6.512.858-9.047 2.106-.936-1.852-1.872-3.47-2.027-4.68-.176-1.403-.39-2.261-.176-3.938.214-1.677 1.19-4.055 1.19-4.25-.02-.176-.216-1.034-2.223-1.054-2.009-.019-3.744.39-3.94.917a22.416 22.416 0 0 0-.838 2.983c-.35 1.833-4.016 8.326-6.102 11.738-.683-1.326-1.268-2.496-1.385-3.432-.175-1.403-.39-2.262-.175-3.938.214-1.677 1.189-4.056 1.189-4.251-.02-.175-.214-1.033-2.222-1.053-2.009-.02-3.744.39-3.939.916-.195.527-.41 1.775-.838 2.984-.41 1.209-5.284 12.05-6.552 14.877a60.095 60.095 0 0 1-1.618 3.373c-.41.78-.02.058-.059.136l-.546 1.034v.02c-.272.487-.565.955-.702.955-.097 0-.292-1.307.04-3.1.72-3.764 2.475-9.633 2.456-9.847 0-.097.332-1.131-1.131-1.657-1.423-.526-1.93.35-2.047.35-.117 0-.215.313-.215.313s1.58-6.61-3.022-6.61c-2.885 0-6.863 3.14-8.832 6.005-1.248.683-3.9 2.126-6.708 3.666-1.072.585-2.183 1.21-3.236 1.774l-.214-.234C17.434 43.121 7.12 38.91 7.549 30.915c.156-2.905 1.17-10.567 19.81-19.848 15.267-7.604 27.492-5.518 29.617-.877 3.022 6.629-6.532 18.951-22.403 20.725-6.045.683-9.223-1.657-10.022-2.534-.839-.916-.956-.956-1.267-.78-.507.273-.195 1.092 0 1.58.468 1.228 2.418 3.411 5.732 4.503 2.905.956 10.002 1.482 18.581-1.833 9.613-3.724 17.12-14.057 14.916-22.695C60.271.362 45.687-2.523 31.902 2.37c-8.21 2.924-17.1 7.487-23.495 13.473C.803 22.941-.406 29.141.1 31.715 1.875 40.9 14.529 46.885 19.598 51.31c-.253.136-.487.273-.701.39-2.535 1.248-12.187 6.298-14.604 11.64-2.73 6.045.428 10.393 2.534 10.978 6.513 1.813 13.18-1.443 16.788-6.805 3.587-5.362 3.159-12.323 1.501-15.5l-.058-.118 1.988-1.17c1.288-.76 2.555-1.462 3.666-2.067-.624 1.697-1.072 3.705-1.306 6.63-.273 3.431 1.13 7.877 2.983 9.632.819.76 1.794.78 2.398.78 2.145 0 3.12-1.775 4.192-3.9 1.326-2.593 2.496-5.596 2.496-5.596s-1.463 8.13 2.534 8.13c1.463 0 2.926-1.89 3.588-2.866v.02s.04-.058.117-.195c.082-.12.16-.244.234-.37v-.04c.585-1.013 1.892-3.333 3.841-7.174 2.516-4.953 4.933-11.153 4.933-11.153s.234 1.52.956 4.016c.428 1.482 1.364 3.1 2.086 4.68a76.048 76.048 0 0 1-.936 1.287l.02.02a55.466 55.466 0 0 1-1.541 1.949c-1.989 2.379-4.367 5.09-4.68 5.87-.37.916-.292 1.598.43 2.144.526.39 1.462.468 2.457.39 1.793-.117 3.041-.566 3.665-.839a12.692 12.692 0 0 0 3.159-1.657c1.95-1.443 3.139-3.49 3.022-6.22-.058-1.501-.546-2.983-1.15-4.386.175-.254.35-.508.526-.78 3.08-4.505 5.46-9.457 5.46-9.457s.233 1.521.955 4.017c.37 1.267 1.11 2.652 1.774 4.016-2.886 2.36-4.699 5.09-5.323 6.883-1.15 3.315-.253 4.816 1.443 5.167.76.156 1.852-.195 2.671-.546a12.102 12.102 0 0 0 3.373-1.735c1.95-1.443 3.822-3.451 3.724-6.162-.058-1.247-.39-2.476-.838-3.646 2.457-1.013 5.635-1.598 9.671-1.11 8.676 1.013 10.392 6.433 10.061 8.695-.332 2.262-2.145 3.51-2.75 3.9-.604.37-.799.507-.74.78.078.41.35.39.877.312.721-.118 4.563-1.852 4.718-6.025.234-5.363-4.854-11.212-13.882-11.154z" mask="url(#b)"/>
    </g>
</svg>
