<svg xmlns="http://www.w3.org/2000/svg" width="80" height="80" viewBox="0 0 80 80">
    <path fill="#61ba95" fill-rule="evenodd" d="M77.949 36.31L43.26 1.625a5.117 5.117 0 0 0-7.235 0l-7.203 7.203 9.138 9.137a6.074 6.074 0 0 1 7.694 7.746l8.806 8.806a6.078 6.078 0 0 1 6.29 1.445 6.086 6.086 0 0 1 0 8.61 6.087 6.087 0 0 1-9.937-6.622l-8.212-8.213V51.35a6.088 6.088 0 1 1-5.006-.177V29.359a6.014 6.014 0 0 1-1.993-1.328 6.086 6.086 0 0 1-1.312-6.656l-9.008-9.008L1.5 36.15a5.118 5.118 0 0 0 0 7.237l34.688 34.687a5.117 5.117 0 0 0 7.236 0l34.526-34.525a5.12 5.12 0 0 0 0-7.239"/>
</svg>
