<svg xmlns="http://www.w3.org/2000/svg" xmlns:xlink="http://www.w3.org/1999/xlink" width="79" height="80" viewBox="0 0 79 74">
    <defs>
        <path id="a" d="M.129.151V.008H.014V.15H.13z"/>
        <path id="c" d="M48.842 73.54V.023H.017V73.54z"/>
        <path id="e" d="M21.672.023H0V73.66h43.344V.023z"/>
    </defs>
    <g fill="none" fill-rule="evenodd">
        <g transform="translate(77.267 52.463)">
            <mask id="b" fill="#fff">
                <use xlink:href="#a"/>
            </mask>
            <path fill="#FFF" d="M.014.008v0z" mask="url(#b)"/>
        </g>
        <g transform="translate(29.38 .328)">
            <mask id="d" fill="#fff">
                <use xlink:href="#c"/>
            </mask>
            <path fill="#61ba95" d="M48.745 53.125v-.001l.004.004-.004-.003zm.097-2.005c0-5.45-1.956-10.448-5.202-14.34a22.3 22.3 0 0 0 5.202-14.336c0-12.362-10.056-22.42-22.42-22.42H.018a43.397 43.397 0 0 1 15.429 16.164h10.977a6.263 6.263 0 0 1 6.256 6.256 6.262 6.262 0 0 1-6.256 6.255H19.946c.51 2.64.784 5.359.784 8.143a43.11 43.11 0 0 1-.761 8.022h6.454a6.264 6.264 0 0 1 6.256 6.256 6.263 6.263 0 0 1-6.256 6.256H15.517a42.534 42.534 0 0 1-2.508 4.034 49.18 49.18 0 0 1-.214.305l.018.018-.018-.018A43.48 43.48 0 0 1 .205 73.54h26.217c12.02 0 21.858-9.508 22.395-21.4a21.406 21.406 0 0 0 .025-1.021z" mask="url(#d)"/>
        </g>
        <g transform="translate(.482 .328)">
            <mask id="f" fill="#fff">
                <use xlink:href="#e"/>
            </mask>
            <path fill="#61ba95" d="M43.344 36.842C43.344 16.54 26.824.023 6.521.023H0v16.165h6.521c11.39 0 20.656 9.264 20.656 20.654a20.535 20.535 0 0 1-2.025 8.903c-3.342 6.95-10.435 11.752-18.631 11.752H0V73.66h6.521c12.761 0 24.025-6.527 30.634-16.415a36.6 36.6 0 0 0 6.19-20.403z" mask="url(#f)"/>
        </g>
    </g>
</svg>
