<svg xmlns="http://www.w3.org/2000/svg" width="80" height="80" viewBox="0 0 80 80">
    <g fill="none" fill-rule="evenodd">
        <path fill="#61ba95" d="M0 79.69h79.689V0H0v79.69zm4.412-4.413h70.865V4.412H4.412v70.865z"/>
        <path fill="#61ba95" d="M59.015 69.815c6.72 0 11.723-3.487 11.723-9.854 0-5.911-3.385-8.539-9.399-11.116l-1.768-.758c-3.032-1.314-4.346-2.173-4.346-4.295 0-1.718 1.314-3.032 3.386-3.032 2.022 0 3.335.859 4.548 3.032l5.508-3.538c-2.324-4.093-5.558-5.66-10.055-5.66-6.317 0-10.36 4.043-10.36 9.349 0 5.76 3.386 8.49 8.49 10.661l1.768.76c3.234 1.414 5.154 2.273 5.154 4.698 0 2.021-1.869 3.487-4.8 3.487-3.486 0-5.457-1.82-6.974-4.295l-5.76 3.334c2.072 4.094 6.317 7.227 12.885 7.227"/>
        <path fill="#FFF" d="M21.116 63.346z"/>
        <path fill="#61ba95" d="M31.727 69.814c6.267 0 10.561-3.335 10.561-10.662V34.999h-7.074v24.053c0 3.537-1.466 4.446-3.79 4.446-2.425 0-3.436-1.667-4.547-3.638l-5.76 3.487c1.667 3.536 4.951 6.467 10.61 6.467"/>
    </g>
</svg>
