<svg xmlns="http://www.w3.org/2000/svg" xmlns:xlink="http://www.w3.org/1999/xlink" preserveAspectRatio="xMidYMid" width="80" height="80" viewBox="0 0 80 80">
  <defs>
    <style>
      .cls-1 {
        fill: #61ba95;
        fill-rule: evenodd;
      }
    </style>
  </defs>
  <path d="M61.995,64.315 C65.911,64.315 69.086,67.490 69.086,71.406 C69.086,75.322 65.911,78.496 61.995,78.496 C58.079,78.496 54.904,75.322 54.904,71.406 C54.904,67.490 58.079,64.315 61.995,64.315 Z" class="cls-1"/>
  <path d="M61.995,1.544 C65.911,1.544 69.086,4.718 69.086,8.634 C69.086,12.550 65.911,15.725 61.995,15.725 C58.079,15.725 54.904,12.550 54.904,8.634 C54.904,4.718 58.079,1.544 61.995,1.544 Z" class="cls-1"/>
  <path d="M64.714,38.141 C63.800,27.474 54.865,19.096 43.960,19.096 C40.821,19.096 37.855,19.810 35.184,21.053 L30.221,12.279 C34.363,10.218 39.019,9.036 43.960,9.036 C46.710,9.036 49.375,9.400 51.913,10.074 C52.615,15.021 56.855,18.829 61.995,18.829 C63.345,18.829 64.631,18.560 65.810,18.084 C70.964,23.236 74.300,30.201 74.795,37.939 L64.714,38.141 ZM23.115,39.940 C23.115,46.991 26.626,53.213 31.985,56.985 L26.791,65.626 C20.656,61.516 16.069,55.273 14.109,47.952 C16.403,46.082 17.870,43.237 17.870,40.047 C17.870,36.834 16.381,33.973 14.059,32.105 C15.983,24.741 20.563,18.456 26.705,14.312 L31.931,22.936 C26.603,26.711 23.115,32.913 23.115,39.940 ZM35.237,58.852 C37.894,60.080 40.841,60.784 43.960,60.784 C54.812,60.784 63.718,52.490 64.706,41.897 L74.791,41.997 C74.279,49.771 70.898,56.761 65.689,61.912 C64.542,61.465 63.299,61.211 61.995,61.211 C56.913,61.211 52.711,64.934 51.939,69.798 C49.393,70.477 46.720,70.844 43.960,70.844 C39.053,70.844 34.427,69.678 30.307,67.642 L35.237,58.852 Z" class="cls-1"/>
  <path d="M7.675,32.956 C11.591,32.956 14.766,36.131 14.766,40.047 C14.766,43.963 11.591,47.137 7.675,47.137 C3.759,47.137 0.584,43.963 0.584,40.047 C0.584,36.131 3.759,32.956 7.675,32.956 Z" class="cls-1"/>
</svg>
