<svg xmlns="http://www.w3.org/2000/svg" xmlns:xlink="http://www.w3.org/1999/xlink" width="88" height="80" viewBox="0 0 88 80">
    <defs>
        <path id="a" d="M87.246 39.703v39.702H0V0h87.246z"/>
    </defs>
    <g fill="none" fill-rule="evenodd">
        <mask id="b" fill="#fff">
            <use xlink:href="#a"/>
        </mask>
        <path fill="#61ba95" stroke="#61ba95" d="M43.666 77.02l-.044-.052.089-.001-.045.052zm-24.412-50.8l1.102-22.054 21.676-2.408L19.254 26.22zm47.8-22.055l.772 21.95L45.293 1.756l21.761 2.41zm2.38 23.528l-.765-21.755 16.11 21.755H69.434zm15.063 1.552L47.193 72.892l21.814-43.647h15.49zm-17.224 0l-23.61 47.241-23.944-47.241h47.554zm-49.293 0l22.086 43.577L2.68 29.245H17.98zM2.538 27.693L18.712 5.978l-1.085 21.715H2.538zm64.633 0H20.003L43.665 2.281l23.506 25.412zm1.057-24.959L43.684.017 43.67 0l-.015.016-24.46 2.718L0 28.504l43.668 50.901 43.578-50.988L68.228 2.734z" mask="url(#b)"/>
    </g>
</svg>
