<svg xmlns="http://www.w3.org/2000/svg" xmlns:xlink="http://www.w3.org/1999/xlink" preserveAspectRatio="xMidYMid" width="80" height="80" viewBox="0 0 80 80">
  <defs>
    <style>
      .cls-1 {
        fill: #61ba95;
        fill-rule: evenodd;
      }
    </style>
  </defs>
  <path d="M-0.000,80.000 L-0.000,-0.000 L80.000,-0.000 L80.000,80.000 L-0.000,80.000 ZM77.002,2.935 L2.935,2.935 L2.935,77.002 L77.002,77.002 L77.002,2.935 Z" class="cls-1"/>
  <path d="M25.355,45.092 L34.284,45.092 L34.284,72.008 L39.466,72.008 L39.466,45.092 L48.457,45.092 L48.457,40.720 L25.355,40.720 L25.355,45.092 Z" class="cls-1"/>
  <path d="M70.311,46.403 C70.311,46.403 69.046,45.379 66.689,44.717 C63.055,43.697 57.174,44.531 57.136,48.152 C57.069,54.621 68.106,54.624 70.790,60.172 C71.405,61.041 73.847,69.687 65.066,72.071 C56.764,74.324 51.891,70.759 51.891,70.759 L51.954,65.763 C51.153,66.148 66.075,72.682 66.486,63.390 C66.607,60.650 57.219,57.482 54.326,54.834 C50.839,51.643 47.819,36.249 70.287,40.899 L70.311,46.403 Z" class="cls-1"/>
</svg>
