<svg xmlns="http://www.w3.org/2000/svg" width="81" height="80" viewBox="0 0 81 80">
    <g fill="#61ba95" fill-rule="evenodd">
        <path d="M47.58 70.097a3.49 3.49 0 0 1 3.487-3.494h.006a3.49 3.49 0 0 1 3.493 3.487v.006a3.49 3.49 0 0 1-3.487 3.494h-.006a3.49 3.49 0 0 1-3.493-3.487v-.006zm21.21-49.928h-6.784v9.527s.366 11.365-11.183 11.365H31.564s-10.82-.175-10.82 10.457v17.58s-1.643 10.64 19.622 10.64c20.348 0 19.078-8.825 19.078-8.825l-.023-9.142H40.003v-2.744h27.13s13.021 1.476 13.021-19.055c0-20.532-11.365-19.803-11.365-19.803z"/>
        <path d="M32.574 9.641a3.49 3.49 0 0 1-3.486 3.494h-.007a3.49 3.49 0 0 1-3.493-3.488v-.006a3.49 3.49 0 0 1 3.487-3.493h.006a3.49 3.49 0 0 1 3.493 3.487v.006zm-3.243 29.036H48.59s10.82.174 10.82-10.458V10.64S61.054 0 39.788 0C19.44 0 20.711 8.824 20.711 8.824l.022 9.142h19.418v2.745H13.02S0 19.234 0 39.765C0 60.297 11.364 59.57 11.364 59.57h6.782v-9.528s-.365-11.364 11.184-11.364z"/>
    </g>
</svg>
