<?xml-stylesheet type="text/css" href="style.css"?>
<svg xmlns="http://www.w3.org/2000/svg" xmlns:xlink="http://www.w3.org/1999/xlink" preserveAspectRatio="xMidYMid" width="574" height="312" viewBox="0 0 574 312">
  <defs>
    <style>
.cls-1,
.cls-16 {
    stroke: #0edc87;
}

.cls-1,
.cls-14,
.cls-16,
.cls-8,
.cls-9 {
    stroke-width: 2px;
}

.cls-1 {
    stroke-dasharray: 8, 4;
}

.cls-1,
.cls-14,
.cls-16,
.cls-28,
.cls-29,
.cls-30,
.cls-8,
.cls-9 {
    fill: none;
}

.cls-1,
.cls-10,
.cls-11,
.cls-12,
.cls-13,
.cls-18,
.cls-2,
.cls-22,
.cls-24,
.cls-25,
.cls-29,
.cls-3,
.cls-32,
.cls-33,
.cls-34,
.cls-4,
.cls-7,
.cls-8 {
    fill-rule: evenodd;
}

.cls-2,
.cls-6 {
    fill: #0cb296;
}

.cls-3 {
    fill: #4f63a6;
}

.cls-4 {
    fill: #fff;
}

.cls-10,
.cls-5 {
    fill: #c75285;
}

.cls-34,
.cls-7 {
    fill: #181b28;
}

.cls-34,
.cls-8,
.cls-9 {
    stroke: #0edcb7;
}

.cls-11 {
    fill: #5c73c1;
}

.cls-12,
.cls-26 {
    fill: #0cb26f;
}

.cls-13 {
    fill: #b54d7c;
}

.cls-14,
.cls-30 {
    stroke: #0edcb8;
}

.cls-15,
.cls-25 {
    fill: #0a0c15;
}

.cls-17,
.cls-24 {
    fill: #0edcb8;
}

.cls-18 {
    fill: #0edc87;
}

.cls-19 {
    fill: #11131e;
}

.cls-20 {
    fill: #273257;
}

.cls-21 {
    fill: #6179cc;
}

.cls-22 {
    fill: #0ed4b2;
}

.cls-23 {
    fill: #3cf0a6;
}

.cls-27 {
    fill: #fff568;
    opacity: 0.68;
}

.cls-28,
.cls-29 {
    stroke: #6179cc;
}

.cls-28,
.cls-29,
.cls-30,
.cls-34 {
    stroke-width: 1px;
}

.cls-31,
.cls-33 {
    fill: #0edcb7;
}

.cls-32 {
    fill: #34394f;
}

.blink-1 .bl1 {
    animation: bl1 3s infinite;
}

@keyframes bl1 {
    33.33% {
        fill: #b54d7c;
    }
    66.33% {
        fill: #0cb296;
    }
    100% {
        fill: #0cb296;
    }
}

.blink-1 .bl2 {
    animation: bl2 3s infinite;
}

@keyframes bl2 {
    33.33% {
        fill: #0cb296;
    }
    66.33% {

        fill: #b54d7c;
    }
    100% {
        fill: #0cb296;
    }
}

.blink-1 .bl3 {
    animation: bl3 3s infinite;
}

@keyframes bl3 {
    33.33% {
        fill: #0cb296;
    }
    66.33% {

         fill: #0cb296;
    }
    100% {
       
        fill: #b54d7c;
    }
}


.blink-2 .bl1 {
    animation: bl1 3s infinite;
}

@keyframes bl1 {
    33.33% {
        fill: #b54d7c;
    }
    66.33% {
        fill: #0cb296;
    }
    100% {
        fill: #0cb296;
    }
}

.blink-2 .bl2 {
    animation: bl2 3s infinite;
}

@keyframes bl2 {
    33.33% {
        fill: #0cb296;
    }
    66.33% {

        fill: #b54d7c;
    }
    100% {
        fill: #0cb296;
    }
}

.blink-2 .bl3 {
    animation: bl3 3s infinite;
}

@keyframes bl3 {
    33.33% {
        fill: #0cb296;
    }
    66.33% {

         fill: #0cb296;
    }
    100% {
       
        fill: #b54d7c;
    }
}
.blink-3 .bl1 {
    animation: bl1 3s infinite;
}

@keyframes bl1 {
    33.33% {
        fill: #b54d7c;
    }
    66.33% {
        fill: #0cb296;
    }
    100% {
        fill: #0cb296;
    }
}

.blink-3 .bl2 {
    animation: bl2 3s infinite;
}

@keyframes bl2 {
    33.33% {
        fill: #0cb296;
    }
    66.33% {

        fill: #b54d7c;
    }
    100% {
        fill: #0cb296;
    }
}

.blink-3 .bl3 {
    animation: bl3 3s infinite;
}

@keyframes bl3 {
    33.33% {
        fill: #0cb296;
    }
    66.33% {

         fill: #0cb296;
    }
    100% {
       
        fill: #b54d7c;
    }
}
.gutter{
  fill: #181b28;
  transform: translateY(-52px) translateX(-80px) scaleX(1.2) ;
  z-index: 3;

}
.feed{
  animation: feed 4s ease infinite;
  z-index: 1;
}
@keyframes feed{
  0%{
     transform: translateY(0px);
  }
  20%{
    transform: translateY(-25px);
  }
  
  40%{
    transform: translateY(-10px);
  }
  60%{
     transform: translateY(-25px);
  }
  100%{
     transform: translateY(0px);
  }

}
.profile{
  animation: profile 4s infinite;
}
@keyframes profile{
  0%{
     
     opacity: 1;
  }
  20%{
   opacity: 0;
  }
  
  40%{
    opacity: 0.8;
  }
  60%{
    opacity: 0;
  }
  100%{
    opacity: 1;
  }

}
.f1{
  animation: f1 4s infinite;
 
}
@keyframes f1{
  0%{
     
     opacity: 0;
      transform: translateY(10px);
  }
  20%{
   opacity: 1;
    transform: translateY(-10px);
  }
  
  40%{
    opacity: 0.2;
    transform: translateY(6px);
  }
  60%{
    opacity: 1;
    transform: translateY(-10px);
  }
  100%{
    opacity: 0;
    transform: translateY(10px);
  }

}


.m-feed{
  animation: m-feed 6s ease infinite;
  z-index: 1;
}
@keyframes m-feed{
  0%{
     transform: translateY(0px);
  }
  20%{
    transform: translateY(-7px);
  }
  
  40%{
    transform: translateY(-1px);
  }
  60%{
     transform: translateY(-5px);
  }
  100%{
     transform: translateY(0px);
  }

}
.pointer1{
  animation:pointer1 ease 4s infinite;
  transform: translateX(-20px);
}
@keyframes pointer1{
  0%{
   transform: translateX(-30px) translateY(0px);
  }
  20%{
    transform: translateX(-30px) translateY(-70px);
  }
  40%{
    transform: translateX(-30px) translateY(-10px);
  }
  60%{
     transform: translateX(-30px) translateY(-50px);
  }
  100%{
     transform: translateX(-30px) translateY(0);
  }
}


.line-1{
  animation: line-1 infinite 2s;
}
@keyframes line-1{
  0%{
    transform: scaleX(1);
    transform-origin: 0% 0px;
    opacity: 0;
  }
  50%{
    transform: scaleX(0.2);
    transform-origin: 100% 0px;
    opacity: 1;
  }
  70%{
     transform: scaleX(0);
    transform-origin: 100% 0px;
    opacity: 0.2;
  }
  100%{
    transform: scaleX(1);
    transform-origin: 0% 0px;
    opacity: 0;
  }
}
.line-2{
  animation: line-2 infinite 2.5s;
}
@keyframes line-2{
  0%{
    transform: scaleX(1);
    transform-origin: 0% 0px;
    opacity: 0;
  }
  50%{
    transform: scaleX(0.2);
    transform-origin: 100% 0px;
    opacity: 1;
  }
  70%{
     transform: scaleX(0);
    transform-origin: 100% 0px;
    opacity: 0.2;
  }
  100%{
    transform: scaleX(1);
    transform-origin: 0% 0px;
    opacity: 0;
  }
}
.line-3{
  animation: line-3 infinite 1.75s;
}
@keyframes line-3{
  0%{
    transform: scaleX(1);
    transform-origin: 0% 0px;
    opacity: 0;
  }
  50%{
    transform: scaleX(0.2);
    transform-origin: 100% 0px;
    opacity: 1;
  }
  70%{
     transform: scaleX(0);
    transform-origin: 100% 0px;
    opacity: 0.2;
  }
  100%{
    transform: scaleX(1);
    transform-origin: 0% 0px;
    opacity: 0;
  }
}
.cleft{
  animation:cleft 4s infinite;
}
@keyframes cleft{
  0%{
    opacity: 0;
    transform:translateX(-5px);
  }
  20%{
    opacity: 1;
    transform:translateX(0px);
  }
  80%{
    opacity: 1;
    transform:translateX(0px);
  }
  100%{
    opacity: 0;
  }
}
.cright{
  animation:cright 4s infinite;
}
@keyframes cright{
  0%{
    opacity: 0;
    transform:translateX(5px);
  }
  20%{
    opacity: 1;
    transform:translateX(0px);
  }
  80%{
    opacity: 1;
    transform:translateX(0px);
  }
  100%{
    opacity: 0;
  }
}
.sline{
  animation: sline 4s infinite ease;
}

@keyframes sline{
  0%{
    opacity: 0;
  }
  90%{
    opacity: 1;
  }
  100%{
    opacity: 0;
  }
}

.mouse{
  animation: mouse 7s ease infinite;
}
@keyframes mouse{
  0%{
    transform: translateY(80px) translateX(-90px);
  }
  15%{
    transform: translateY(80px) translateX(-65px);
  }
  30%{
    transform:translateY(-13px) translateX(-65px);
  }
  45%{
    transform:translateY(-13px) translateX(-35px)
  }
  60%{
    transform: translateY(77px) translateX(-36px)
  }
  75%{
      transform: translateY(77px) translateX(55px);
  }
  100%{
      transform: translateY(80px) translateX(-90px);
  }
}
    </style>
  </defs>
    <path d="M170.547,227.673 L208.924,227.673 L208.924,140.523 " class="cls-1"/>
    <path d="M390.779,88.591 L469.791,88.591 L469.791,90.855 L390.779,90.855 L390.779,88.591 Z" class="cls-2 line-2"/>
    <path d="M293.708,80.668 L390.779,80.668 L390.779,82.932 L293.708,82.932 L293.708,80.668 Z" class="cls-3 line-1"/>
    <path d="M289.193,121.414 L347.887,121.414 L347.887,123.677 L289.193,123.677 L289.193,121.414 Z" class="cls-3 line-2"/>
    <path d="M323.055,98.777 L381.749,98.777 L381.749,101.041 L323.055,101.041 L323.055,98.777 Z" class="cls-3 line-3"/>
    <path d="M302.738,98.777 L311.768,98.777 L311.768,101.041 L302.738,101.041 L302.738,98.777 Z" class="cls-3 line-3"/>
    <path d="M133.428,98.777 L142.457,98.777 L142.457,101.041 L133.428,101.041 L133.428,98.777 Z" class="cls-3 line-1"/>
    <path d="M93.922,76.141 L142.457,76.141 L142.457,78.405 L93.922,78.405 L93.922,76.141 Z" class="cls-3 line-3"/>
    <path d="M83.763,129.336 L116.497,129.336 L116.497,131.600 L83.763,131.600 L83.763,129.336 Z" class="cls-2 line-1"/>
    <path d="M105.209,107.832 L137.943,107.832 L137.943,110.095 L105.209,110.095 L105.209,107.832 Z" class="cls-2 line-1"/>
    <path d="M113.110,119.150 L130.041,119.150 L130.041,121.414 L113.110,121.414 L113.110,119.150 Z" class="cls-3 line-2"/>
    <path d="M328.699,113.491 L343.372,113.491 L343.372,115.755 L328.699,115.755 L328.699,113.491 Z" class="cls-2 line-2"/>
    <path d="M298.223,130.468 L328.699,130.468 L328.699,132.732 L298.223,132.732 L298.223,130.468 Z" class="cls-2 line-2"/>
    <path d="M343.372,130.468 L390.779,130.468 L390.779,132.732 L343.372,132.732 L343.372,130.468 Z" class="cls-2 line-1"/>
    <path d="M399.809,130.468 L409.968,130.468 L409.968,132.732 L399.809,132.732 L399.809,130.468 Z" class="cls-2 line-1"/>
    <path d="M270.166,183.664 L266.618,155.368 L291.451,174.232 L278.443,174.232 L270.166,183.664 Z" class="cls-4 mouse"/>
    <g class="blink-2">
      <circle cx="409.405" cy="111.797" r="2.815" class="cls-5 bl2"/>
      <circle cx="420.69" cy="111.797" r="2.81" class="cls-6 bl3"/>
      <path d="M431.978,108.964 C433.537,108.964 434.800,110.230 434.800,111.793 C434.800,113.356 433.537,114.623 431.978,114.623 C430.420,114.623 429.156,113.356 429.156,111.793 C429.156,110.230 430.420,108.964 431.978,108.964 Z" class="cls-2 bl1"/>
    </g>
    <g class="blink-1">
      <circle cx="88.845" cy="88.016" r="2.815" class="cls-5 bl1"/>
      <circle cx="100.125" cy="88.016" r="2.815" class="cls-6 bl2"/>
      <path d="M111.417,85.195 C112.976,85.195 114.239,86.462 114.239,88.025 C114.239,89.588 112.976,90.855 111.417,90.855 C109.859,90.855 108.595,89.588 108.595,88.025 C108.595,86.462 109.859,85.195 111.417,85.195 Z" class="cls-2 bl3"/>
    </g>
    <path d="M327.441,227.673 L225.855,227.673 L225.855,140.523 " class="cls-1"/>
    <path d="M345.000,155.000 L531.330,155.000 C532.435,155.000 533.330,155.895 533.330,157.000 L533.330,278.408 C533.330,279.513 532.435,280.408 531.330,280.408 L345.000,280.408 C343.895,280.408 343.000,279.513 343.000,278.408 L343.000,157.000 C343.000,155.895 343.895,155.000 345.000,155.000 Z" class="cls-7"/>
    <path d="M172.805,33.000 L271.005,33.000 L271.005,131.468 L172.805,131.468 L172.805,33.000 Z" class="cls-8"/>
    <rect x="25" y="161" width="126" height="126" class="cls-9"/>
    <path d="M355.950,164.073 C357.222,164.073 358.252,165.093 358.252,166.350 C358.252,167.608 357.222,168.627 355.950,168.627 C354.679,168.627 353.648,167.608 353.648,166.350 C353.648,165.093 354.679,164.073 355.950,164.073 Z" class="cls-10"/>
    <path d="M365.069,164.073 C366.331,164.073 367.353,165.093 367.353,166.350 C367.353,167.608 366.331,168.627 365.069,168.627 C363.808,168.627 362.785,167.608 362.785,166.350 C362.785,165.093 363.808,164.073 365.069,164.073 Z" class="cls-11"/>
    <path d="M374.206,164.073 C375.468,164.073 376.490,165.093 376.490,166.350 C376.490,167.608 375.468,168.627 374.206,168.627 C372.945,168.627 371.922,167.608 371.922,166.350 C371.922,165.093 372.945,164.073 374.206,164.073 Z" class="cls-12"/>
    <path d="M59.354,186.527 L114.937,186.527 C116.042,186.527 116.937,187.422 116.937,188.527 L116.937,208.314 C116.937,209.418 116.042,210.314 114.937,210.314 L59.354,210.314 C58.250,210.314 57.354,209.418 57.354,208.314 L57.354,188.527 C57.354,187.422 58.250,186.527 59.354,186.527 Z" class="cls-7"/>
    <path d="M59.354,214.645 L114.937,214.645 C116.042,214.645 116.937,215.540 116.937,216.645 L116.937,236.467 C116.937,237.572 116.042,238.467 114.937,238.467 L59.354,238.467 C58.250,238.467 57.354,237.572 57.354,236.467 L57.354,216.645 C57.354,215.540 58.250,214.645 59.354,214.645 Z" class="cls-7"/>
    <path d="M59.354,242.763 L114.937,242.763 C116.042,242.763 116.937,243.659 116.937,244.763 L116.937,264.550 C116.937,265.655 116.042,266.550 114.937,266.550 L59.354,266.550 C58.250,266.550 57.354,265.655 57.354,264.550 L57.354,244.763 C57.354,243.659 58.250,242.763 59.354,242.763 Z" class="cls-7"/>
    <g class="blink-1">
      <path d="M95.314,196.893 C96.543,196.893 97.539,197.895 97.539,199.130 C97.539,200.365 96.543,201.367 95.314,201.367 C94.086,201.367 93.090,200.365 93.090,199.130 C93.090,197.895 94.086,196.893 95.314,196.893 Z" class="cls-2 bl3 "/>
      <circle cx="102.78" cy="199.14" r="2.22" class="cls-6 bl2"/>
      <path d="M110.228,196.893 C111.457,196.893 112.453,197.895 112.453,199.130 C112.453,200.365 111.457,201.367 110.228,201.367 C108.999,201.367 108.003,200.365 108.003,199.130 C108.003,197.895 108.999,196.893 110.228,196.893 Z" class="cls-13 bl1"/>
    </g>
    <g class="blink-2">
      <path d="M95.314,223.556 C96.543,223.556 97.539,224.566 97.539,225.811 C97.539,227.056 96.543,228.065 95.314,228.065 C94.086,228.065 93.090,227.056 93.090,225.811 C93.090,224.566 94.086,223.556 95.314,223.556 Z" class="cls-2 bl1"/>
      <circle cx="102.78" cy="225.813" r="2.22" class="cls-6 bl2"/>
      <path d="M110.228,223.556 C111.457,223.556 112.453,224.566 112.453,225.811 C112.453,227.056 111.457,228.065 110.228,228.065 C108.999,228.065 108.003,227.056 108.003,225.811 C108.003,224.566 108.999,223.556 110.228,223.556 Z" class="cls-10 bl3"/>
    </g>
    <g class="blink-3">
      <circle cx="95.31" cy="255.438" r="2.22" class="cls-6 bl2"/>
      <path d="M102.789,253.201 C104.018,253.201 105.014,254.203 105.014,255.438 C105.014,256.673 104.018,257.675 102.789,257.675 C101.560,257.675 100.564,256.673 100.564,255.438 C100.564,254.203 101.560,253.201 102.789,253.201 Z" class="cls-2 bl3"/>
    <circle cx="110.22" cy="255.438" r="2.22" class="cls-5 bl1"/>
      <path d="M202.091,97.202 L242.527,97.202 C243.070,97.188 249.437,95.363 252.430,90.703 C255.624,85.732 254.992,74.838 243.352,73.645 C243.352,73.645 243.302,61.976 230.149,65.522 C231.203,64.051 218.340,48.297 203.741,60.648 C200.848,63.095 197.451,67.153 198.790,73.645 C198.790,73.645 194.448,74.854 192.188,78.519 C188.871,83.899 189.076,96.414 202.091,97.202 Z" class="cls-2 "/>
    </g>
    <path d="M215.590,75.404 L210.815,81.409 L215.389,87.056 L214.478,87.896 L208.968,81.093 L209.879,80.253 L210.035,80.445 L214.705,74.573 L215.590,75.404 Z" class="cls-4 cright"/>
    <path d="M232.842,81.093 L227.331,87.896 L226.420,87.056 L230.994,81.409 L226.219,75.404 L227.104,74.573 L231.775,80.445 L231.931,80.253 L232.842,81.093 Z" class="cls-4 cleft"/>
    <path d="M223.901,74.933 L225.116,75.469 L219.235,88.866 L218.020,88.330 L223.901,74.933 Z" class="cls-4 sline"/>
    <g>
      <rect x="-364" y="-274" width="86" height="86" class="cls-14"/>
      <rect x="-365" y="-175" width="87" height="87" class="cls-14"/>
      <rect x="-254" y="-261" width="224" height="163" rx="10" ry="10" class="cls-15"/>
      <rect x="-243" y="-252" width="201" height="141" class="cls-16"/>
      <rect x="-182" y="-183" width="106" height="12" class="cls-17"/>
      <rect x="-165" y="-205" width="88" height="12" class="cls-17"/>
      <path d="M-155.172,-92.000 L-120.828,-92.000 C-119.611,-92.000 -118.625,-91.014 -118.625,-89.797 C-118.625,-88.580 -119.611,-87.594 -120.828,-87.594 L-155.172,-87.594 C-156.389,-87.594 -157.375,-88.580 -157.375,-89.797 C-157.375,-91.014 -156.389,-92.000 -155.172,-92.000 Z" class="cls-18"/>
      <rect x="-237" y="-245" width="188" height="20" class="cls-19"/>
      <circle cx="-62" cy="-134" r="8" class="cls-17"/>
      <rect x="-214" y="-163" width="137" height="26" class="cls-17"/>
      <rect x="-346" y="-254" width="41.969" height="10" class="cls-20"/>
      <rect x="-346" y="-238" width="59" height="10" class="cls-17"/>
      <rect x="-346" y="-221" width="36.313" height="10" class="cls-21"/>
      <path d="M-350.934,-158.897 L-351.679,-158.065 L-351.817,-158.184 L-356.425,-154.215 L-357.164,-155.040 L-352.664,-158.915 L-357.190,-162.816 L-356.445,-163.647 L-351.809,-159.651 L-351.699,-159.746 L-350.960,-158.922 L-350.962,-158.921 L-350.934,-158.897 Z" class="cls-22"/>
      <rect x="-302.312" y="-221" width="15.312" height="10" class="cls-5"/>
      <rect x="-357" y="-252" width="3" height="5.063" class="cls-5"/>
      <rect x="-357" y="-235.531" width="3" height="5.062" class="cls-23"/>
      <rect x="-357" y="-218.062" width="3" height="5.062" class="cls-23"/>
      <rect x="-304.312" y="-156.469" width="10.406" height="1.563" class="cls-17"/>
      <circle cx="-317.015" cy="-158.203" r="3.204" class="cls-14"/>
      <path d="M-308.005,-155.847 L-308.829,-154.997 L-311.162,-157.839 L-311.214,-157.784 L-311.500,-158.048 L-311.500,-155.000 L-312.656,-155.000 L-312.656,-161.406 L-311.500,-161.406 L-311.500,-159.192 L-309.317,-161.574 L-308.463,-160.785 L-310.360,-158.715 L-308.005,-155.847 Z" class="cls-24"/>
      <path d="M-341.671,-161.995 C-341.580,-161.854 -335.061,-162.039 -341.231,-156.065 L-338.189,-156.169 L-338.189,-155.004 L-343.993,-155.004 L-343.993,-156.169 C-343.993,-156.169 -340.128,-157.886 -339.930,-159.082 C-339.561,-161.308 -343.993,-160.247 -343.993,-160.247 L-343.993,-161.413 L-341.671,-161.995 Z" class="cls-24"/>
      <path d="M371.922,221.488 L480.019,221.488 L480.019,238.092 L371.922,238.092 L371.922,221.488 Z" class="gutter"/>
      <ellipse cx="-333.546" cy="-158.5" rx="2.891" ry="3.5" class="cls-14"/>
      <ellipse cx="-326" cy="-158.5" rx="2.906" ry="3.5" class="cls-14"/>
      <path d="M-208.953,-86.094 L-67.047,-86.094 C-64.812,-86.094 -63.000,-84.282 -63.000,-82.047 C-63.000,-79.812 -64.812,-78.000 -67.047,-78.000 L-208.953,-78.000 C-211.188,-78.000 -213.000,-79.812 -213.000,-82.047 C-213.000,-84.282 -211.188,-86.094 -208.953,-86.094 Z" class="cls-25"/>
      <ellipse cx="-75.795" cy="-234.5" rx="2.205" ry="2.5" class="cls-26"/>
      <circle cx="-67" cy="-234.5" r="2.22" class="cls-21"/>
      <circle cx="-58.205" cy="-234.5" r="2.205" class="cls-5"/>
      <rect x="-230" y="-162" width="120" height="20" class="cls-27"/>
      <rect x="-218" y="-203" width="14" height="15" class="cls-28"/>
      <path d="M-212.342,-197.135 L-210.868,-191.947 L-207.184,-197.135 L-203.500,-193.429 L-203.500,-187.500 L-217.500,-187.500 L-217.500,-194.171 L-212.342,-197.135 Z" class="cls-29"/>
      <ellipse cx="-203.5" cy="-203.563" rx="5.5" ry="5.438" class="cls-30"/>
      <path d="M-294.072,-230.646 L-289.765,-226.320 L-292.385,-223.719 L-296.693,-228.045 L-298.197,-221.997 L-303.236,-236.856 L-304.001,-237.624 L-303.429,-237.427 L-303.623,-237.999 L-302.858,-237.230 L-288.006,-232.113 L-294.072,-230.646 Z" class="cls-4"/>
      <g class="feed">
        <g class="profile">
           <circle cx="379.55" cy="197.297" r="9.14" class="cls-31"/>
          <path d="M400.880,188.244 L445.018,188.244 L445.018,194.304 L400.880,194.304 L400.880,188.244 Z" class="cls-33"/>
          <path d="M400.880,198.931 L425.233,198.931 L425.233,204.848 L400.880,204.848 L400.880,198.931 Z" class="cls-33"/>
        </g>
        <path d="M371.922,221.488 L480.019,221.488 L480.019,238.092 L371.922,238.092 L371.922,221.488 Z" class="cls-32"/>
        <path d="M371.922,245.658 L480.019,245.658 L480.019,253.189 L371.922,253.189 L371.922,245.658 Z" class="cls-32"/>
        
      </g>
      <path d="M371.922,245.658 L480.019,245.658 L480.019,253.189 L371.922,253.189 L371.922,245.658 Z" class="cls-32 f1"/>
      <path d="M499.282,205.348 L545.500,205.348 C546.605,205.348 547.500,206.243 547.500,207.348 L547.500,292.500 C547.500,293.605 546.605,294.500 545.500,294.500 L499.282,294.500 C498.178,294.500 497.282,293.605 497.282,292.500 L497.282,207.348 C497.282,206.243 498.178,205.348 499.282,205.348 Z" class="cls-34"/>
      <circle cx="521.69" cy="285.672" r="3.81" class="cls-31"/>
      <g class="m-feed">
        <g class="m-profile">
          <path d="M521.891,215.463 C525.666,215.463 528.726,218.505 528.726,222.259 C528.726,226.012 525.666,229.054 521.891,229.054 C518.116,229.054 515.056,226.012 515.056,222.259 C515.056,218.505 518.116,215.463 521.891,215.463 Z" class="cls-33"/>
          <path d="M508.941,236.585 L534.805,236.585 L534.805,239.956 L508.941,239.956 L508.941,236.585 Z" class="cls-33"/>
          <path d="M515.056,243.794 L528.726,243.794 L528.726,247.165 L515.056,247.165 L515.056,243.794 Z" class="cls-33"/>
        </g>
        <path d="M505.919,256.238 L539.410,256.238 L539.410,265.311 L505.919,265.311 L505.919,256.238 Z" class="cls-32"/>
        <path d="M505.919,268.287 L539.410,268.287 L539.410,277.396 L505.919,277.396 L505.919,268.287 Z" class="cls-32"/>
      </g>
      <g class="pointer1">
        <path d="M385.503,262.436 L383.795,258.406 C383.795,258.406 380.779,257.415 380.508,259.925 C380.238,262.435 381.638,270.006 381.638,270.006 L392.127,275.280 C392.127,275.280 393.564,275.022 394.399,274.519 C395.233,274.016 399.537,265.685 399.537,265.685 C399.537,265.685 401.296,263.556 393.832,259.646 C393.832,259.646 392.759,258.638 393.364,256.874 C393.928,255.233 396.926,250.974 395.458,250.315 C393.989,249.657 393.112,248.677 391.156,252.593 C389.201,256.508 385.503,262.436 385.503,262.436 Z" class="cls-4"/>
        <path d="M379.185,272.160 L392.765,278.987 L391.389,281.682 L377.809,274.855 L379.185,272.160 Z" class="cls-4"/>
      </g>
    </g>
</svg>
