<svg xmlns="http://www.w3.org/2000/svg" xmlns:xlink="http://www.w3.org/1999/xlink" preserveAspectRatio="xMidYMid" width="734" height="734" viewBox="0 0 734 734">
  <defs>
    <style>
      .cls-1, .cls-2 {
        fill: #0edc87;
      }

      .cls-1 {
        fill-rule: evenodd;
      }
    </style>
  </defs>
  <path d="M375.000,676.000 C203.239,676.000 64.000,536.761 64.000,365.000 C64.000,193.239 203.239,54.000 375.000,54.000 C546.761,54.000 686.000,193.239 686.000,365.000 C686.000,536.761 546.761,676.000 375.000,676.000 ZM374.500,66.000 C209.643,66.000 76.000,199.643 76.000,364.500 C76.000,529.357 209.643,663.000 374.500,663.000 C539.357,663.000 673.000,529.357 673.000,364.500 C673.000,199.643 539.357,66.000 374.500,66.000 Z" class="cls-1"/>
  <g>
    <rect x="189" y="348" width="382" height="12" class="cls-2"/>
    <path d="M454.388,168.595 L465.504,173.116 L405.612,320.405 L394.496,315.884 L454.388,168.595 Z" class="cls-1"/>
    <path d="M339.432,393.062 L350.945,396.445 L306.122,548.996 L294.608,545.613 L339.432,393.062 Z" class="cls-1"/>
    <path d="M263.585,335.458 L271.466,326.409 L351.397,396.030 L343.515,405.079 L263.585,335.458 Z" class="cls-1"/>
    <path d="M394.585,317.458 L402.466,308.409 L482.397,378.030 L474.515,387.079 L394.585,317.458 Z" class="cls-1"/>
    <path d="M454.844,167.966 L462.714,177.025 L272.473,342.291 L264.604,333.231 L454.844,167.966 Z" class="cls-1"/>
    <path d="M480.374,375.453 L488.494,384.289 L302.944,554.804 L294.824,545.968 L480.374,375.453 Z" class="cls-1"/>
  </g>
</svg>
