<svg xmlns="http://www.w3.org/2000/svg" xmlns:xlink="http://www.w3.org/1999/xlink" preserveAspectRatio="xMidYMid" width="597" height="597" viewBox="0 0 597 597">
  <defs>
    <style>
      .cls-1 {
        stroke: #0edc87;
        stroke-width: 3px;
        stroke-dasharray: 12,6;
        fill: none;
      }

      .cls-2 {
        fill: #040710;
      }

      .cls-2, .cls-3 {
        fill-rule: evenodd;
      }

      .cls-3 {
        fill: #0edc87;
      }
    </style>
  </defs>
  <circle cx="297.5" cy="301.5" r="262.5" class="cls-1"/>
  <path d="M551.000,267.000 L561.000,266.000 L564.000,341.000 L550.000,339.000 L551.000,267.000 Z" class="cls-2"/>
  <path d="M43.000,267.000 L33.000,266.000 L30.000,341.000 L44.000,339.000 L43.000,267.000 Z" class="cls-2"/>
  <path d="M548.086,310.667 L558.498,324.105 C558.837,324.542 558.757,325.170 558.320,325.508 C557.884,325.846 557.256,325.767 556.917,325.330 L546.505,311.892 C546.167,311.455 546.247,310.827 546.683,310.489 C547.120,310.151 547.748,310.230 548.086,310.667 Z" class="cls-3"/>
  <path d="M567.259,311.375 L557.213,324.432 C556.886,324.856 556.963,325.467 557.384,325.795 C557.806,326.124 558.412,326.047 558.738,325.622 L568.784,312.565 C569.110,312.141 569.033,311.530 568.612,311.202 C568.191,310.873 567.585,310.950 567.259,311.375 Z" class="cls-3"/>
  <path d="M27.827,292.607 L38.368,278.929 C38.711,278.484 38.630,277.845 38.188,277.501 C37.746,277.156 37.110,277.238 36.768,277.682 L26.227,291.361 C25.884,291.805 25.965,292.444 26.407,292.789 C26.849,293.133 27.485,293.052 27.827,292.607 Z" class="cls-3"/>
  <path d="M47.237,291.887 L37.067,278.596 C36.736,278.164 36.814,277.543 37.241,277.208 C37.667,276.874 38.281,276.953 38.611,277.384 L48.781,290.675 C49.112,291.107 49.034,291.728 48.607,292.063 C48.181,292.398 47.568,292.319 47.237,291.887 Z" class="cls-3"/>
  <path d="M558.941,325.000 L555.972,325.000 C556.639,317.420 557.000,309.753 557.000,302.000 C557.000,294.247 556.639,286.580 555.972,279.000 L559.030,279.000 C559.660,286.418 560.000,293.919 560.000,301.500 C560.000,309.422 559.628,317.256 558.941,325.000 Z" class="cls-3"/>
  <path d="M36.059,324.000 C35.372,316.256 35.000,308.422 35.000,300.500 C35.000,292.919 35.340,285.418 35.970,278.000 L39.028,278.000 C38.361,285.580 38.000,293.247 38.000,301.000 C38.000,308.753 38.361,316.420 39.028,324.000 L36.059,324.000 Z" class="cls-3"/>
</svg>
