<svg xmlns="http://www.w3.org/2000/svg" xmlns:xlink="http://www.w3.org/1999/xlink" preserveAspectRatio="xMidYMid" width="686" height="503" viewBox="56 0 686 503">
    <style>
    .cls-1 {
        fill: #181b28;
    }

    .cls-2 {
        stroke:url(#aqua);
    }

    .cls-2,
    .cls-3 {
        stroke-width: 4px;
    }

    .cls-10,
    .cls-14,
    .cls-2,
    .cls-3,
    .cls-5 {
        fill: none;
    }

    .cls-14,
    .cls-3,
    .cls-5 {
        stroke: #0edcb8;
    }

    .cls-4 {
        fill: #0edcb8;
    }

    .cls-10,
    .cls-5 {
        stroke-width: 2px;
    }

    .cls-13,
    .cls-6 {
        fill: #3d8bc7;
    }

    .cls-15,
    .cls-7 {
        fill: #6179cc;
    }

    .cls-8 {
        fill: #3cf0a6;
    }

    .cls-9 {
        fill: #c75285;
    }

    .cls-10 {
        stroke: #eef8f6;
    }

    .cls-11 {
        fill: #0edc87;
    }

    .cls-11,
    .cls-13,
    .cls-14,
    .cls-15,
    .cls-16 {
        fill-rule: evenodd;
    }

    .cls-12 {
        fill: #273257;
    }

    .cls-14 {
        stroke-width: 3px;
    }

    .cls-16 {
        fill: #fff;
    }

    .cls-17 {
        fill: #c45184;
    }

    .box {
        opacity: 0.8;
        background-blend-mode: multiply;
        mix-blend-mode: multiply;
    }

    .box-1 {
        animation-name: box-1;
        animation-iteration-count: infinite;
        animation-duration: 4s;
        background: rgba(14, 220, 135, 0.8);
    }

    @keyframes box-1 {
        25%,
        30% {
            transform: translate(-32px, 0px) rotate(-2deg);
        }
        70% {
            transform: none;
        }
    }

    .box-2 {
        animation-name: box-2;
        animation-iteration-count: infinite;
        animation-duration: 4s;
        background: rgba(14, 220, 135, 0.8);
    }

    @keyframes box-2 {
        25%,
        30% {
            transform: translate(32px, 0px) rotate(2deg);
        }
        70% {
            transform: none;
        }
    }



    .am-1 {
        animation-name: am-1;
        animation-iteration-count: infinite;
        animation-duration: 1s;
    }

    @keyframes am-1 {
        0% {
            opacity: 1;
        }
        100% {
            opacity: 0;
        }
    }

    .am-2 {
        animation-name: am-2;
        animation-iteration-count: infinite;
        animation-duration: 1s;
    }

    @keyframes am-2 {

        0% {
            opacity: 1;
            r: 2;
        }
        100% {
            r: 6;
            opacity: 0;
        }
    }

    .am-3 {
        animation-name: am-3;
        animation-iteration-count: infinite;
        animation-duration: 4s;
    }

    @keyframes am-3 {
        0% {
            transform: translateY(0);
        }
        50% {
            transform: translateY(-20px);
        }
        100% {
            transform: translateY(0);
        }
    }

    .am-4 {
        animation-name: am-4;
        animation-iteration-count: infinite;
        animation-duration: 4s;
    }

    @keyframes am-4 {
        0% {
            opacity: 0;
        }
        50% {
            opacity: 1;
        }
        100% {
            opacity: 0;
        }
    }


    .am-5 {
        stroke: none;
        animation-name: am-5;
        animation-iteration-count: infinite;
        animation-duration: 4s;
    }

    @keyframes am-5 {
        0%,
        50% {
            width: 62.594px;
        }
        25% {
            width: 50px;
        }
    }

    .am-6 {
        stroke: none;
        animation-name: am-6;
        animation-iteration-count: infinite;
        animation-duration: 4s;
    }

    @keyframes am-6 {
        0% {
            transform: translateY(0);
        }
        50% {
            transform: translateY(20px);
        }
        100% {
            transform: translateY(0);
        }
    }

    .am-7 {
        animation-name: am-7;
        animation-iteration-count: infinite;
        animation-duration: 2s;
        animation-delay: 1s;
    }

    @keyframes am-7 {

        25%,
        30% {
            opacity: 1;
            r: 24.469;
        }
        70% {
            r: 30;
            opacity: 0;
        }
    }

    .am-8 {
        animation-name: am-8;
        animation-iteration-count: infinite;
        animation-duration: 3s;
    }

    @keyframes am-8 {

        25%,
        30% {
            opacity: 1;
            r: 24.469;
        }
        70% {
            r: 30;
            opacity: 0;
        }
    }

    .graph-1 {
        transform-origin: 450px 351px;
    }

    .bar-1 {
        animation-name: bar-1;
        animation-iteration-count: infinite;
        animation-duration: 4s;
    }

    @keyframes bar-1 {
        25%,
        30% {
            transform: scaleY(0.5);
        }
        70% {
            transform: scaleY(1);
        }
    }

    .bar-2 {
        animation-name: bar-2;
        animation-iteration-count: infinite;
        animation-duration: 5s;
        animation-delay: 0.5s;
    }

    @keyframes bar-2 {
        25%,
        30% {
            transform: scaleY(0.5);
        }
        70% {
            transform: scaleY(1);
        }
    }

    .bar-3 {
        animation-name: bar-3;
        animation-iteration-count: infinite;
        animation-duration: 3s;
        animation-delay: 0.5s;
    }

    @keyframes bar-3 {
        25%,
        30% {
            transform: scaleY(0.5);
        }
        70% {
            transform: scaleY(1);
        }
    }

    .bar-4 {
        animation-name: bar-4;
        animation-iteration-count: infinite;
        animation-duration: 2s;
        animation-delay: 0.5s;
    }

    @keyframes bar-4 {
        25%,
        30% {
            transform: scaleY(0.5);
        }
        70% {
            transform: scaleY(1);
        }
    }

    .graph-2 {
        transform-origin: 0px 148px;
    }

    .circle-1 {
        animation-name: circle-1;
        animation-iteration-count: infinite;
        animation-duration: 4s;
        transform-origin: 598px 296px;
    }

    @keyframes circle-1 {
        25%,
        30% {
            transform: rotate(90deg);
        }
        70% {
            transform: rotate(180deg);
        }
    }

    .line-1 {
        animation-name: line-1;
        animation-iteration-count: infinite;
        animation-duration: 10s;
    }
    @keyframes line-1{
        0%{
            width:0px;
        }
        100%{
            width:367.594;
        }
    }
    .plus{
        transform: translateX(56px);
    }
    </style>
    <defs>
        <linearGradient id="aqua">
            <stop offset="5%" stop-color="#0edcb8" />
            <stop offset="95%" stop-color="#20d5a0" />
        </linearGradient>
        <linearGradient id="dark" x1="0%" y1="0%" x2="0%" y2="100%">
            <stop offset="25%" stop-color="#0a0c15" />
            <stop offset="75%" stop-color="#0b0e18" />
        </linearGradient>
    </defs>
    <g>
        <rect x="323.719" y="127.219" width="373.281" height="241.562" rx="5" ry="5" class="cls-1" />
        <rect x="67.656" y="19" width="133.157" height="133.313" class="cls-2" />
        <rect x="376.094" y="173" width="163.75" height="93.938" class="cls-3" />
        <rect x="485.25" y="286.563" width="63.281" height="4.343" class="cls-4" />
        <rect x="507.094" y="301.844" width="32.75" height="4.375" class="cls-4" />
        <rect x="401.125" y="299.281" width="81.906" height="87.719" rx="5" ry="5" class="cls-5" />
        <rect x="417.688" y="343.313" width="8.718" height="8.781" class="cls-6 graph-1 bar-4" />
        <rect x="430.656" y="325.906" width="8.782" height="26.188" class="cls-7 graph-1 bar-3" />
        <rect x="443.781" y="314.938" width="8.719" height="37.156" class="cls-8 graph-1 bar-2" />
        <rect x="456.875" y="328.063" width="8.75" height="24.031" class="cls-9 graph-1 bar-1" />
        <rect x="417.594" y="360.813" width="48.031" height="2.156" class="cls-4" />
        <rect x="417.594" y="369.531" width="48.031" height="2.219" class="cls-4" />
        <circle cx="596.61" cy="296.344" r="21.829" class="cls-10" />
        <rect x="611.656" y="86.219" width="68.282" height="86.594" rx="5" ry="5" class="cls-5" />
        <path d="M355.307,242.290 L357.861,240.028 L246.574,113.575 L244.020,115.837 L355.307,242.290 Z" class="cls-11" />
        <path d="M355.559,266.248 L353.068,263.917 L242.916,382.396 L245.407,384.727 L355.559,266.248 Z" class="cls-11" />
        <rect x="639.688" y="120.719" width="11" height="29.312" class="cls-6 bar-1 graph-2" />
        <rect x="626.438" y="133.75" width="10.937" height="16.281" class="cls-6 bar-3 graph-2" />
        <rect x="654.156" y="104.438" width="11" height="45.593" class="cls-12 bar-2 graph-2" />
        <rect x="323.719" y="426.875" width="367.594" height="2.313" class="cls-4 line-1" />
        <path d="M597.688,321.500 C583.829,321.500 572.594,310.251 572.594,296.375 C572.594,296.328 572.601,296.282 572.601,296.235 L579.508,297.221 C579.914,306.950 587.920,314.719 597.766,314.719 C607.871,314.719 616.063,306.541 616.063,296.453 C616.063,286.365 607.871,278.188 597.766,278.188 C596.422,278.188 595.117,278.341 593.856,278.616 L591.256,272.114 C593.312,271.569 595.460,271.250 597.688,271.250 C611.546,271.250 622.781,282.499 622.781,296.375 C622.781,310.251 611.546,321.500 597.688,321.500 Z" class="cls-13 circle-1" />
        <path d="M379.485,262.824 L430.674,223.231 L463.422,238.518 L480.887,223.231 L496.170,225.415 L498.353,218.863 L522.879,189.905 L537.673,203.577 " class="cls-14" />
        <circle cx="430.688" cy="223.234" r="6.563" class="cls-4" />
        <ellipse cx="521.157" cy="191.609" rx="10.813" ry="10.828" class="cls-9 am-2" />
        <g class="am-3">
            <rect x="91.563" y="52.063" width="62.594" height="7.188" class="cls-6" />
            <rect x="91.563" y="69.875" width="86.5" height="7.25" class="cls-4" />
            <rect x="91.563" y="90.781" width="62.594" height="6.813" class="cls-7" />
        </g>
        <rect x="91.563" y="92.781" width="62.594" height="6.813" class="cls-4 am-4" />
        <rect x="85" y="60.781" width="3" height="6.813" class="cls-4 cls-9 am-6" />
        <path d="M100.212,118.818 L99.750,118.425 L93.124,123.814 L91.575,122.159 L97.999,116.935 L92.099,111.916 L93.672,110.157 L101.785,117.060 L100.212,118.818 Z" class="cls-15" />
        <rect x="105.219" y="121.531" width="10.25" height="2.313" class="cls-7 am-1" />
        <circle cx="463.422" cy="245.063" r="6.547" class="cls-4" />
        <ellipse cx="483.219" cy="222.484" rx="6.563" ry="6.547" class="cls-4" />
        <rect x="80" y="191.031" width="133.156" height="133.313" class="cls-2" />
        <rect x="67.656" y="351.688" width="133.157" height="133.312" class="cls-2" />
        <rect x="106.344" y="384.75" width="38.687" height="38.75" class="cls-7 box box-1" />
        <rect x="125.719" y="407.531" width="38.687" height="38.719" class="cls-7 box box-2" />
        <circle cx="145.844" cy="257.703" r="24.469" class="cls-4 am-7" />
        <circle cx="145.844" cy="257.703" r="24.469" class="cls-4 am-8" />
        <path d="M103.219,259.156 L91.469,259.156 L91.469,270.156 L89.312,270.156 L89.312,259.156 L78.312,259.156 L78.312,256.969 L89.312,256.969 L89.312,245.219 L91.469,245.219 L91.469,256.969 L103.219,256.969 L103.219,259.156 Z" class="cls-16 plus" />
        <circle cx="343.625" cy="140.344" r="2.844" class="cls-17" />
        <ellipse cx="355.015" cy="140.344" rx="2.859" ry="2.844" class="cls-8" />
        <circle cx="366.391" cy="140.344" r="2.828" class="cls-7" />
    </g>
</svg>